<?xml version="1.0" standalone="no"?>
<!DOCTYPE svg PUBLIC "-//W3C//DTD SVG 20010904//EN"
 "http://www.w3.org/TR/2001/REC-SVG-20010904/DTD/svg10.dtd">
<svg version="1.0" xmlns="http://www.w3.org/2000/svg"
 width="260.000000pt" height="260.000000pt" viewBox="0 0 260.000000 260.000000"
 preserveAspectRatio="xMidYMid meet">
<metadata>
Created by potrace 1.11, written by Peter Selinger 2001-2013
</metadata>
<g transform="translate(0.000000,260.000000) scale(0.100000,-0.100000)"
fill="#000000" stroke="none">
<path d="M830 2587 c-121 -28 -186 -93 -210 -211 -17 -82 -7 -125 30 -133 33
-6 54 -26 48 -44 -2 -7 -35 -21 -73 -31 -85 -23 -290 -121 -372 -176 -33 -22
-88 -71 -122 -108 -64 -70 -128 -182 -118 -208 3 -8 38 -25 76 -36 l71 -22
108 26 c136 33 260 35 315 7 36 -19 37 -19 84 6 27 13 85 35 131 49 l83 26 42
-28 c23 -14 61 -42 85 -61 23 -19 75 -54 115 -78 64 -39 73 -43 84 -29 10 14
17 14 45 5 17 -6 42 -20 53 -31 29 -27 113 -52 136 -39 19 10 20 7 43 -91 3
-15 24 -36 53 -55 26 -16 49 -38 51 -47 3 -13 -92 -190 -255 -476 -15 -27 -28
-40 -36 -35 -135 82 -238 157 -235 171 2 9 22 30 45 47 65 47 50 91 -21 61
-29 -12 -36 -12 -49 1 -13 13 -28 14 -93 6 -88 -11 -157 2 -162 31 -2 9 3 16
10 16 10 0 22 48 42 169 28 163 29 209 4 238 -23 29 -218 111 -300 127 -85 17
-86 17 -209 -8 -186 -39 -248 -35 -308 18 l-24 21 6 -43 c6 -53 46 -116 90
-143 53 -33 146 -56 292 -74 155 -20 185 -28 185 -49 0 -8 -16 -42 -36 -75
-28 -48 -39 -80 -50 -153 -17 -117 -17 -118 2 -118 13 0 15 -6 9 -27 -3 -16
-13 -35 -21 -44 -16 -18 -19 -82 -4 -110 13 -24 70 -26 135 -4 34 12 50 13 66
5 28 -16 57 -7 120 36 30 20 86 52 124 71 39 19 84 46 102 59 42 32 53 31 22
-2 -13 -14 -63 -45 -111 -69 -47 -24 -103 -54 -123 -68 l-37 -25 26 -17 c41
-27 106 -15 162 28 l45 36 132 -86 c73 -47 134 -87 136 -89 11 -10 -34 -76
-61 -90 -28 -14 -34 -14 -67 -1 -91 39 -176 49 -270 33 -137 -24 -239 -93
-287 -193 -96 -205 34 -405 291 -445 271 -42 510 163 455 391 -6 28 -25 68
-41 90 l-28 40 42 23 c37 20 51 40 117 163 208 386 267 475 310 475 16 0 91
-31 107 -44 1 -1 -4 -24 -12 -51 -45 -148 24 -283 182 -358 59 -27 81 -32 169
-35 119 -5 189 12 269 62 234 150 190 463 -78 555 -151 52 -334 24 -438 -67
l-34 -30 -135 79 c-74 44 -149 87 -167 96 -33 17 -43 37 -43 91 0 35 24 64 68
82 28 12 29 43 2 70 -16 16 -33 20 -86 20 -74 0 -104 11 -98 37 7 24 -28 56
-156 142 -58 39 -141 99 -186 133 -45 35 -90 68 -100 75 -16 10 -17 13 -4 22
8 6 22 8 30 4 8 -3 32 -8 52 -11 35 -4 39 -2 65 42 16 25 34 46 41 46 12 0 11
13 -5 56 -2 5 9 26 24 46 23 30 36 37 68 40 39 3 40 4 37 38 -8 79 -58 155
-129 197 -101 59 -240 83 -343 60z m130 -602 c26 -14 85 -74 153 -158 20 -25
77 -74 126 -107 49 -34 95 -68 103 -77 11 -14 10 -15 -12 -8 -67 19 -143 78
-276 213 -77 78 -145 142 -152 142 -7 0 -12 5 -12 11 0 11 29 5 70 -16z m492
-451 c17 -9 41 -14 54 -11 29 5 30 1 4 -13 -16 -9 -28 -7 -52 4 -42 22 -69 20
-75 -4 -6 -23 -23 -27 -23 -6 0 15 36 46 53 46 4 0 22 -7 39 -16z m-853 -328
c0 -29 12 -88 26 -131 15 -42 24 -84 20 -93 -8 -22 -15 -11 -42 69 -24 73 -29
103 -25 172 3 57 20 44 21 -17z m1317 -43 c-77 -125 -64 -244 37 -327 59 -48
145 -86 227 -100 77 -13 101 -26 48 -26 -161 0 -350 109 -388 224 -16 48 -8
141 15 187 18 35 86 112 93 104 2 -2 -12 -30 -32 -62z m397 34 l38 -17 -18
-30 c-21 -36 -85 -90 -107 -90 -29 0 -87 124 -71 151 10 15 109 7 158 -14z
m-226 -46 c13 -11 37 -36 53 -56 25 -31 27 -40 17 -56 -10 -15 -24 -19 -74
-19 -34 0 -73 5 -87 11 -25 12 -25 13 -10 48 13 31 60 91 72 91 2 0 15 -9 29
-19z m349 -76 c7 -19 14 -49 14 -66 l0 -32 -50 6 c-80 10 -131 28 -128 46 4
19 104 81 131 81 11 0 23 -13 33 -35z m-268 -97 c17 -17 14 -57 -8 -105 -21
-46 -35 -51 -79 -29 -33 18 -91 81 -91 100 0 32 151 61 178 34z m159 -19 c26
-11 56 -28 66 -36 16 -16 16 -18 -5 -41 -27 -29 -81 -57 -125 -65 -38 -7 -43
2 -43 83 0 46 4 61 18 69 24 15 34 14 89 -10z m-1667 -485 c-102 -148 -69
-288 87 -372 62 -33 162 -62 211 -62 17 0 34 -5 37 -10 8 -13 -56 -13 -131 1
-122 22 -236 99 -275 184 -25 54 -24 147 1 204 19 42 87 117 97 107 3 -2 -10
-26 -27 -52z m245 12 c8 -19 17 -52 21 -75 6 -37 5 -40 -20 -47 -30 -7 -102
17 -138 46 l-23 18 24 26 c21 22 94 64 114 66 4 0 14 -15 22 -34z m187 -3 c23
-16 46 -36 52 -46 13 -22 0 -32 -89 -64 -53 -20 -62 -20 -75 -7 -18 17 -17
102 1 135 14 27 54 21 111 -18z m-236 -155 c16 -7 30 -20 32 -29 4 -20 -42
-75 -81 -100 -29 -17 -30 -17 -53 10 -29 35 -44 73 -44 113 l0 31 59 -6 c32
-3 72 -11 87 -19z m331 8 c10 -9 -9 -86 -26 -107 -17 -21 -18 -21 -53 -5 -46
22 -115 82 -106 91 23 23 167 40 185 21z m-139 -136 c29 -43 28 -48 -13 -66
-62 -25 -175 -16 -175 15 0 27 58 111 82 120 27 11 71 -18 106 -69z"/>
</g>
</svg>
