<svg xmlns="http://www.w3.org/2000/svg" viewBox="0 0 512.001 512.001" width="512" height="512"><path d="M511.89 306.662c-.347-4.494-1.661-8.931-3.82-12.959-6.084-11.26-4.018-8.219-102.504-63.305-4.946-2.387-182.115-102.713-190.529-105.626-2.477-.883-5.204-1.592-4.995-1.514-22.526-5.659-46.59 4.631-62.254 21.34-1.594 1.512-27.017 24.98-65.143 24.98-12.389 0-25.161-2.46-37.966-7.312C23.088 154.087.07 170.1.07 193.069c0 146.809-.558 138.067 1.484 144.617 3.906 12.532 15.114 21.867 28.62 23.024v6.835c0 12.551 10.211 22.762 22.763 22.762h5.724c12.551 0 22.762-10.211 22.762-22.762v-6.705h92.659v6.705c0 12.551 10.21 22.762 22.762 22.762h5.726c12.551 0 22.762-10.211 22.762-22.762v-6.705h28.341v6.705c0 12.551 10.212 22.762 22.764 22.762h5.724c12.551 0 22.762-10.211 22.762-22.762v-6.705h28.344v6.705c0 12.551 10.212 22.762 22.764 22.762h5.723c12.551 0 22.762-10.211 22.762-22.762v-6.705h28.342v6.705c0 12.551 10.211 22.762 22.762 22.762h5.725c12.551 0 22.762-10.211 22.762-22.762v-7.19c29.517-2.535 47.885-20.744 47.885-51.403.042-.001-.098-2.244-.102-2.29zM15.067 230.824c46.575-4.78 87.401 32.453 86.458 79.773l-68.517.038c-9.893 0-17.941-8.049-17.941-17.942v-61.869zm43.594 144.487h-5.724c-4.283 0-7.767-3.483-7.767-7.766v-6.705h21.256v6.705h.001c0 4.281-3.483 7.766-7.766 7.766zm143.907 0h-5.725c-4.282 0-7.766-3.483-7.766-7.766v-6.705h21.256v6.705h.001c0 4.281-3.483 7.766-7.766 7.766zm87.356-7.766c0 4.282-3.483 7.766-7.766 7.766h-5.723c-4.283 0-7.768-3.483-7.768-7.766v-6.705h21.257v6.705zm71.826 7.766h-5.723c-4.283 0-7.768-3.483-7.768-7.766v-6.705h21.256v6.705h.001c0 4.281-3.484 7.766-7.766 7.766zm79.59 0h-5.725c-4.282 0-7.766-3.483-7.766-7.766v-6.705c20.84 0 19.856.025 21.256-.065v6.77h.001c0 4.281-3.483 7.766-7.766 7.766zm45.477-39.479c-8.384 7.537-21.966 10.493-32.974 9.703-2.086-.134-1.581-.298-4.196.095-.845-.022-413.021.211-416.639.213-9.893 0-17.941-8.049-17.941-17.942v-7.598c12.454 8.156-6.66 5.341 380.6 5.128a7.497 7.497 0 0 0 7.494-7.502 7.497 7.497 0 0 0-7.502-7.494l-122.549.067 18.414-30.015c7.111-11.6 3.462-26.825-8.135-33.936-11.393-6.988-26.654-3.748-33.938 8.131l-34.262 55.853-18.452.01 39.315-64.085c7.112-11.598 3.464-26.822-8.135-33.938-11.393-6.986-26.651-3.746-33.937 8.132l-55.162 89.924-22.299.013c.915-55.532-46.502-99.552-101.45-94.819V193.07c-.001-9.922 8.048-17.944 17.942-17.944 7.172 0 22.168 9.449 49.636 9.449 45.825 0 75.582-29.199 75.87-29.494.975-1 1.828-1.916 3.955-3.757l48.577 27.168a7.499 7.499 0 0 0 7.32-13.087l-41.95-23.461c13.304-6.684 25.302-6.747 37.082-1.688 1.193.513-9.04-5.159 178.194 99.565-6.096 10.9-6.572 12.959-10.47 14.06-4.421 1.249 4.516 5.13-142.259-76.958a7.498 7.498 0 0 0-7.32 13.088L368 266.272c5.153 2.883 11.281 3.742 17.303 2.039 10.876-3.074 13.797-11.011 19.479-21.169 89.534 50.079 84.14 46.823 86.38 48.874-11.102 15.889-36.463 14.757-40.422 14.474-1-.13.635-.084-30.089-.066a7.497 7.497 0 0 0-7.494 7.502 7.497 7.497 0 0 0 7.498 7.494c30.308 0 29.291.079 29.291.079 10.315.923 32.241-.546 46.978-13.565-.53 10.308-3.923 18.338-10.107 23.898zm-330.402-25.265l50.347-82.073a9.633 9.633 0 0 1 8.269-4.621c7.523 0 12.186 8.308 8.238 14.745l-44.13 71.936-22.724.013zm76.373-.042l29.445-48.003a9.63 9.63 0 0 1 8.268-4.62c7.522 0 12.187 8.306 8.239 14.745l-23.23 37.865-22.722.013z" fill="#ee7601"/></svg>