<svg xmlns="http://www.w3.org/2000/svg" width="512" height="512" viewBox="0 0 385.423 385.423"><path d="M286.783 183.347c22.268-15.557 40.408-35.458 51.077-56.04 12.368-23.859 13.582-46.727 3.415-64.39-8.314-14.445-21.493-23.606-37.109-25.797-7.682-1.077-15.715-.473-23.682 1.639V12.022C280.484 5.382 275.1 0 268.462 0h-151.5c-6.64 0-12.022 5.383-12.022 12.022v26.735c-7.965-2.111-15.998-2.715-23.681-1.637-15.617 2.19-28.796 11.352-37.111 25.797-10.167 17.664-8.954 40.531 3.415 64.39 10.669 20.581 28.809 40.483 51.077 56.039 4.743 3.314 5.281 6.87 4.896 9.271-.436 2.72-2.175 4.917-4.43 5.595-3.389 1.02-9.865-.984-17.848-9.675-5.754-6.264-15.498-6.677-21.763-.922-6.264 5.755-6.677 15.5-.922 21.763 14.805 16.116 28.953 19.832 38.85 19.832 4.518 0 8.15-.773 10.554-1.498 5.138-1.545 9.793-4.229 13.721-7.742 11.215 15.416 27.318 27.055 46.015 32.619v44.234h-37.388c-17.643 0-31.998 14.354-31.998 31.998v41.603c0 8.284 6.716 15 15 15h158.771c8.284 0 15-6.716 15-15V328.82c0-17.644-14.354-31.998-31.997-31.998h-37.39v-44.234c18.695-5.564 34.799-17.203 46.015-32.619 3.929 3.514 8.583 6.197 13.722 7.742 2.404.723 6.035 1.498 10.554 1.498 9.897-.001 24.046-3.718 38.85-19.832 5.755-6.266 5.342-16.008-.922-21.763-6.264-5.755-16.008-5.342-21.763.922-7.984 8.69-14.456 10.692-17.849 9.675-2.256-.678-3.995-2.875-4.431-5.595-.385-2.4.153-5.956 4.896-9.269zM257.096 328.82v26.603H128.325V328.82a2 2 0 0 1 1.998-1.998h124.776a2 2 0 0 1 1.997 1.998zM74.911 113.129c-4.27-8.235-10.473-23.711-4.065-34.845 3.623-6.293 8.428-9.779 14.691-10.657 5.849-.818 12.695.661 19.402 3.945v77.755c-12.915-10.968-23.546-23.696-30.028-36.198zm205.572 36.199V71.57c6.706-3.286 13.553-4.766 19.401-3.943 6.264.878 11.068 4.364 14.689 10.657 6.409 11.134.205 26.61-4.064 34.845-6.48 12.502-17.111 25.23-30.026 36.199z" fill="#ee7601"/></svg>