<svg xmlns="http://www.w3.org/2000/svg" viewBox="0 0 61.149 61.149" width="512" height="512"><path d="M39.299 25.474a.894.894 0 0 0-.22-.32 6.999 6.999 0 0 0-1.517-1.056c-.244-.129-.496-.239-.744-.357v2.327l-.224.125c-1.733 1.014-3.709 1.687-5.621 2.339-1.907.65-2.516 2.416-2.274 3.874.274 1.662 1.545 2.82 3.087 2.82.367 0 .743-.064 1.12-.193l.797-.266c.903-.303 1.985-.665 3.115-1.104v2.082c0 .133-.012.26-.019.387.001.002.01.004.01.004s.003 3.051.034 7.086a3.488 3.488 0 0 0-.635-.059l-4.542.006c-.006-.775-.011-1.498-.014-2.158a6.217 6.217 0 0 1-2.79-.51l-3.379 3.822 10.74-.014h.004a2.544 2.544 0 0 1 .002 5.088l-16.393.021h-.003a2.544 2.544 0 0 1-1.906-4.23l7.915-8.949c.004-.006.009-.008.012-.012a6.866 6.866 0 0 1-.027-.561V22.521c0-.158.011-.308.022-.458a2.319 2.319 0 0 1-.756-.498c-5.894-5.76-6.571-13.359-2.615-20.452 1.421-2.548 5.327-.267 3.905 2.282-2.936 5.264-2.539 10.457 1.703 14.758 1.604-1.034 3.775-1.18 5.554-.444 3.883 1.161 10.198 3.105 10.219 7.853.023 4.922-7.8 7.153-11.317 8.352-2.767.943-3.946-3.426-1.202-4.362 1.983-.676 4.009-1.37 5.827-2.432.57-.335 1.817-.921 2.132-1.646zM36.22 50.511l-4.468.004c.049 2.922.115 5.83.211 8.137.137 3.322 5.309 3.336 5.171 0-.093-2.26-.159-5.203-.207-8.213-.229.046-.465.07-.707.072zm-4.896-34.072a4.525 4.525 0 1 0 0-9.05 4.525 4.525 0 0 0 0 9.05z" fill="#ee7601"/></svg>