<svg xmlns="http://www.w3.org/2000/svg" width="512" height="512"><path d="M409.064 252.746c-7.758 0-15.315.868-22.587 2.503l-13.88-34.34v-62.928c28.109-7.404 48.9-33.034 48.9-63.436v-7.772h29.853V53.382h-63.244v41.164c0 17.758-14.446 32.205-32.205 32.205-17.758 0-32.204-14.446-32.204-32.205V53.381h-63.245v33.391h29.853v7.772c0 30.401 20.792 56.032 48.899 63.436v55.736l-110.388 57.797-33.722-39.972h31.539V198.15H116.03v33.391h35.376l47.107 55.837-13.057 6.836c-18.785-25.154-48.782-41.469-82.52-41.469C46.177 252.746 0 298.922 0 355.683S46.177 458.62 102.937 458.62s102.936-46.177 102.936-102.936c0-11.104-1.774-21.799-5.042-31.826l146.381-76.643 8.318 20.578c-29.605 18.098-49.405 50.725-49.405 87.89 0 56.76 46.177 102.936 102.936 102.936S512 412.443 512 355.683s-46.177-102.937-102.936-102.937zM102.938 425.228c-38.348 0-69.546-31.197-69.546-69.545s31.198-69.545 69.545-69.545c20.873 0 39.613 9.256 52.371 23.864l-31.253 16.364a35.949 35.949 0 0 0-21.118-6.836c-19.935-.001-36.154 16.217-36.154 36.154s16.219 36.154 36.154 36.154c19.765 0 35.868-15.945 36.142-35.647l31.526-16.506a69.469 69.469 0 0 1 1.879 16c-.001 38.346-31.199 69.543-69.546 69.543zm306.126 0c-38.348 0-69.545-31.197-69.545-69.545 0-23.13 11.36-43.646 28.783-56.297l13.276 32.847c-5.398 6.319-8.668 14.506-8.668 23.448 0 19.936 16.219 36.154 36.154 36.154 19.935 0 36.154-16.217 36.154-36.153 0-18.767-14.375-34.236-32.691-35.985l-13.28-32.855a69.867 69.867 0 0 1 9.817-.706c38.348 0 69.545 31.198 69.545 69.545 0 38.35-31.198 69.547-69.545 69.547z" fill="#ee7601"/></svg>