<?xml version="1.0" encoding="iso-8859-1"?>
<!-- Generator: Adobe Illustrator 19.0.0, SVG Export Plug-In . SVG Version: 6.00 Build 0)  -->
<svg xmlns="http://www.w3.org/2000/svg" xmlns:xlink="http://www.w3.org/1999/xlink" version="1.1" id="Capa_1" x="0px" y="0px" viewBox="0 0 512.002 512.002" style="enable-background:new 0 0 512.002 512.002;" xml:space="preserve" width="512px" height="512px">
<g>
	<g>
		<g>
			<path d="M240.71,45.206c-20.293,6.62-33.927,25.426-33.927,46.797c0,5.523,4.478,10,10,10s10-4.477,10-10     c0-12.69,8.089-23.856,20.13-27.784c5.25-1.713,8.118-7.357,6.405-12.608C251.604,46.361,245.96,43.494,240.71,45.206z" fill="#ee7601"/>
			<path d="M279.1,48.528c-4.819-2.698-10.913-0.979-13.611,3.839c-2.698,4.819-0.979,10.913,3.839,13.611     c0.039,0.021,0.171,0.094,0.21,0.115c1.519,0.828,3.157,1.221,4.772,1.221c3.536,0,6.962-1.885,8.78-5.209     C285.737,57.259,283.945,51.178,279.1,48.528z" fill="#ee7601"/>
			<path d="M121.273,25.763l29.566,17.072c1.575,0.909,3.295,1.341,4.991,1.341c3.456,0,6.817-1.794,8.669-5.002     c2.762-4.783,1.123-10.898-3.66-13.66L131.273,8.442c-4.782-2.76-10.898-1.123-13.66,3.66     C114.852,16.885,116.49,23.001,121.273,25.763z" fill="#ee7601"/>
			<path d="M406.884,167.566l-37.96-21.916c-4.783-2.76-10.898-1.123-13.66,3.66c-2.762,4.783-1.123,10.899,3.66,13.66l37.96,21.916     c1.575,0.909,3.294,1.341,4.991,1.341c3.455,0,6.816-1.793,8.669-5.001C413.306,176.443,411.666,170.328,406.884,167.566z" fill="#ee7601"/>
			<path d="M141.398,92.002c0-5.523-4.478-10-10-10H63.48c-5.523,0-10,4.477-10,10c0,5.523,4.477,10,10,10h67.918     C136.921,102.002,141.398,97.525,141.398,92.002z" fill="#ee7601"/>
			<path d="M448.522,82.002h-0.254c-5.522,0-10,4.477-10,10c0,5.523,4.477,10,10,10h0.254c5.522,0,10-4.477,10-10     C458.522,86.479,454.045,82.002,448.522,82.002z" fill="#ee7601"/>
			<path d="M418.791,82.002h-71.336c-5-46.042-44.104-82-91.453-82c-50.731,0-92.001,41.271-92.001,92     c0,12.812,2.718,25.445,7.82,37.053l-49.538,28.603c-4.783,2.762-6.422,8.878-3.66,13.66c1.853,3.209,5.214,5.002,8.669,5.002     c1.697,0,3.417-0.432,4.991-1.341l49.524-28.594c0.861,1.176,1.746,2.337,2.666,3.474c3.785,4.674,7.217,8.714,10.329,12.341     c-41.112,17.807-72.035,53.563-85.924,100.068c-8.834,29.563,0.226,76.791,6.221,108.042c0.486,2.534,0.94,4.904,1.354,7.104     c0.003,0.017,0.006,0.034,0.01,0.051c0.519,2.765,0.971,5.253,1.322,7.391c11.163,67.807,20.915,76.712,53.019,97.135     c4.432,2.819,9.454,6.015,14.951,9.743l0.613,0.385c22.846,13.188,46.264,19.876,69.602,19.882c0.01,0,0.017,0,0.027,0     c23.352-0.001,46.784-6.693,69.643-19.891l0.612-0.384c5.496-3.728,10.518-6.922,14.95-9.74     c32.103-20.419,41.855-29.323,53.018-97.131c0.634-3.852,1.585-8.812,2.687-14.556c5.993-31.249,15.05-78.472,6.218-108.029     c-13.888-46.506-44.811-82.262-85.924-100.068c3.113-3.628,6.545-7.667,10.33-12.341c11.096-13.698,17.98-30.401,19.9-47.857     h71.361c5.522,0,10-4.477,10-10C428.791,86.479,424.313,82.002,418.791,82.002z M330.468,465.109     c-4.467,2.841-9.519,6.054-15.136,9.856c-39.37,22.614-79.285,22.617-118.656,0.009c-5.617-3.803-10.67-7.018-15.136-9.859     c-26.747-17.016-33.532-21.341-43.382-79.683h14.404c4.656,23.175,25.166,40.686,49.692,40.686     c24.525,0,45.033-17.511,49.69-40.686h8.118c4.656,23.175,25.165,40.686,49.69,40.686c24.526,0,45.036-17.511,49.692-40.686     h14.403C363.997,443.774,357.213,448.098,330.468,465.109z M171.566,375.432c0-16.921,13.767-30.686,30.687-30.686     s30.685,13.766,30.685,30.686c0,16.92-13.766,30.686-30.685,30.686C185.333,406.118,171.566,392.352,171.566,375.432z      M340.439,375.458c-0.015,16.909-13.774,30.66-30.688,30.66c-16.921,0-30.686-13.766-30.686-30.686     c0-16.921,13.766-30.686,30.686-30.686c16.913,0,30.673,13.751,30.688,30.66c0,0.009-0.001,0.017-0.001,0.026     C340.437,375.441,340.439,375.449,340.439,375.458z M377.475,365.432h-18.031c-4.656-23.175-25.166-40.686-49.692-40.686     c-24.525,0-45.034,17.511-49.69,40.686h-8.118c-1.61-8.017-5.125-15.349-10.04-21.519c32.852-15.217,60.26-31.727,81.742-49.245     c9.924,12.231,30.329,33.863,58.377,45.728C380.516,349.506,378.884,358.084,377.475,365.432z M383.961,267.992     c3.955,13.24,3.299,32.498,1.023,51.772c-31.24-15.271-51.182-44.802-51.396-45.123c-1.603-2.422-4.179-4.029-7.06-4.401     c-2.881-0.373-5.779,0.526-7.945,2.462c-22.852,20.425-54.532,39.639-94.167,57.158c-6.699-3.272-14.22-5.114-22.164-5.114     c-24.525,0-45.035,17.511-49.692,40.686h-18.033c-5.306-27.668-13.822-72.892-6.486-97.44     c12.766-42.747,41.763-75.044,80.101-89.623c4.686,6.536,7.167,12.318,8.112,21.043c-4.432,1.026-7.738,4.989-7.738,9.733v37.093     c0,13.542,11.016,24.559,24.555,24.559h45.859c13.541,0,24.558-11.017,24.558-24.559v-37.093c0-4.745-3.308-8.709-7.741-9.734     c0.945-8.724,3.428-14.505,8.113-21.042C342.199,192.949,371.195,225.246,383.961,267.992z M228.517,246.238v-27.093h54.972     v27.093c0,2.471-2.087,4.559-4.558,4.559h-45.859C230.603,250.796,228.517,248.709,228.517,246.238z M311.989,137.271     c-4.504,5.561-8.557,10.27-12.133,14.425c-13.865,16.11-22.279,25.885-24.164,47.45h-39.381     c-1.885-21.564-10.299-31.338-24.162-47.447c-3.576-4.156-7.629-8.866-12.134-14.428c-2.379-2.937-4.489-6.021-6.352-9.218     c-0.008-0.016-0.015-0.032-0.023-0.047c-0.013-0.022-0.028-0.042-0.041-0.064c-6.299-10.856-9.598-23.09-9.598-35.939     c0-39.702,32.3-72.001,72.002-72.001c39.699,0,71.998,32.299,71.998,72.001C328.001,108.685,322.464,124.338,311.989,137.271z" fill="#ee7601"/>
			<path d="M109.302,176.725c-2.751-4.788-8.864-6.44-13.653-3.687l-0.424,0.244c-4.789,2.752-6.439,8.864-3.688,13.653     c1.85,3.218,5.216,5.019,8.68,5.019c1.69,0,3.402-0.429,4.973-1.332l0.426-0.244     C110.402,187.625,112.054,181.513,109.302,176.725z" fill="#ee7601"/>
			<path d="M363.934,39.691c1.695,0,3.416-0.432,4.99-1.341l34.103-19.688c4.782-2.761,6.422-8.877,3.66-13.66     c-2.762-4.782-8.878-6.423-13.66-3.66L358.924,21.03c-4.783,2.761-6.422,8.877-3.66,13.66     C357.115,37.898,360.477,39.691,363.934,39.691z" fill="#ee7601"/>
		</g>
	</g>
</g>
<g>
</g>
<g>
</g>
<g>
</g>
<g>
</g>
<g>
</g>
<g>
</g>
<g>
</g>
<g>
</g>
<g>
</g>
<g>
</g>
<g>
</g>
<g>
</g>
<g>
</g>
<g>
</g>
<g>
</g>
</svg>
