<svg xmlns="http://www.w3.org/2000/svg" viewBox="0 0 512.002 512.002" width="512" height="512"><g fill="#ee7601"><path d="M240.71 45.206c-20.293 6.62-33.927 25.426-33.927 46.797 0 5.523 4.478 10 10 10s10-4.477 10-10c0-12.69 8.089-23.856 20.13-27.784 5.25-1.713 8.118-7.357 6.405-12.608-1.714-5.25-7.358-8.117-12.608-6.405zm38.39 3.322c-4.819-2.698-10.913-.979-13.611 3.839-2.698 4.819-.979 10.913 3.839 13.611l.21.115a9.944 9.944 0 0 0 4.772 1.221 9.999 9.999 0 0 0 8.78-5.209c2.647-4.846.855-10.927-3.99-13.577zM121.273 25.763l29.566 17.072a9.995 9.995 0 0 0 13.66-3.661c2.762-4.783 1.123-10.898-3.66-13.66L131.273 8.442c-4.782-2.76-10.898-1.123-13.66 3.66-2.761 4.783-1.123 10.899 3.66 13.661zm285.611 141.803l-37.96-21.916c-4.783-2.76-10.898-1.123-13.66 3.66-2.762 4.783-1.123 10.899 3.66 13.66l37.96 21.916a9.997 9.997 0 0 0 13.66-3.66c2.762-4.783 1.122-10.898-3.66-13.66zM141.398 92.002c0-5.523-4.478-10-10-10H63.48c-5.523 0-10 4.477-10 10s4.477 10 10 10h67.918c5.523 0 10-4.477 10-10zm307.124-10h-.254c-5.522 0-10 4.477-10 10s4.477 10 10 10h.254c5.522 0 10-4.477 10-10s-4.477-10-10-10z"/><path d="M418.791 82.002h-71.336c-5-46.042-44.104-82-91.453-82-50.731 0-92.001 41.271-92.001 92 0 12.812 2.718 25.445 7.82 37.053l-49.538 28.603c-4.783 2.762-6.422 8.878-3.66 13.66a9.996 9.996 0 0 0 13.66 3.661l49.524-28.594a90.618 90.618 0 0 0 2.666 3.474c3.785 4.674 7.217 8.714 10.329 12.341-41.112 17.807-72.035 53.563-85.924 100.068-8.834 29.563.226 76.791 6.221 108.042.486 2.534.94 4.904 1.354 7.104l.01.051c.519 2.765.971 5.253 1.322 7.391 11.163 67.807 20.915 76.712 53.019 97.135 4.432 2.819 9.454 6.015 14.951 9.743l.613.385c22.846 13.188 46.264 19.876 69.602 19.882h.027c23.352-.001 46.784-6.693 69.643-19.891l.612-.384c5.496-3.728 10.518-6.922 14.95-9.74 32.103-20.419 41.855-29.323 53.018-97.131.634-3.852 1.585-8.812 2.687-14.556 5.993-31.249 15.05-78.472 6.218-108.029-13.888-46.506-44.811-82.262-85.924-100.068 3.113-3.628 6.545-7.667 10.33-12.341 11.096-13.698 17.98-30.401 19.9-47.857h71.361c5.522 0 10-4.477 10-10-.001-5.525-4.479-10.002-10.001-10.002zm-88.323 383.107c-4.467 2.841-9.519 6.054-15.136 9.856-39.37 22.614-79.285 22.617-118.656.009-5.617-3.803-10.67-7.018-15.136-9.859-26.747-17.016-33.532-21.341-43.382-79.683h14.404c4.656 23.175 25.166 40.686 49.692 40.686 24.525 0 45.033-17.511 49.69-40.686h8.118c4.656 23.175 25.165 40.686 49.69 40.686 24.526 0 45.036-17.511 49.692-40.686h14.403c-9.85 58.342-16.634 62.666-43.379 79.677zm-158.902-89.677c0-16.921 13.767-30.686 30.687-30.686s30.685 13.766 30.685 30.686-13.766 30.686-30.685 30.686c-16.92 0-30.687-13.766-30.687-30.686zm168.873.026c-.015 16.909-13.774 30.66-30.688 30.66-16.921 0-30.686-13.766-30.686-30.686 0-16.921 13.766-30.686 30.686-30.686 16.913 0 30.673 13.751 30.688 30.66l-.001.026c-.001.009.001.017.001.026zm37.036-10.026h-18.031c-4.656-23.175-25.166-40.686-49.692-40.686-24.525 0-45.034 17.511-49.69 40.686h-8.118c-1.61-8.017-5.125-15.349-10.04-21.519 32.852-15.217 60.26-31.727 81.742-49.245 9.924 12.231 30.329 33.863 58.377 45.728-1.507 9.11-3.139 17.688-4.548 25.036zm6.486-97.44c3.955 13.24 3.299 32.498 1.023 51.772-31.24-15.271-51.182-44.802-51.396-45.123a10.003 10.003 0 0 0-15.005-1.939c-22.852 20.425-54.532 39.639-94.167 57.158a50.367 50.367 0 0 0-22.164-5.114c-24.525 0-45.035 17.511-49.692 40.686h-18.033c-5.306-27.668-13.822-72.892-6.486-97.44 12.766-42.747 41.763-75.044 80.101-89.623 4.686 6.536 7.167 12.318 8.112 21.043-4.432 1.026-7.738 4.989-7.738 9.733v37.093c0 13.542 11.016 24.559 24.555 24.559h45.859c13.541 0 24.558-11.017 24.558-24.559v-37.093c0-4.745-3.308-8.709-7.741-9.734.945-8.724 3.428-14.505 8.113-21.042 38.339 14.58 67.335 46.877 80.101 89.623zm-155.444-21.754v-27.093h54.972v27.093c0 2.471-2.087 4.559-4.558 4.559h-45.859c-2.469-.001-4.555-2.088-4.555-4.559zm83.472-108.967c-4.504 5.561-8.557 10.27-12.133 14.425-13.865 16.11-22.279 25.885-24.164 47.45h-39.381c-1.885-21.564-10.299-31.338-24.162-47.447-3.576-4.156-7.629-8.866-12.134-14.428a73.082 73.082 0 0 1-6.352-9.218l-.023-.047-.041-.064c-6.299-10.856-9.598-23.09-9.598-35.939 0-39.702 32.3-72.001 72.002-72.001 39.699 0 71.998 32.299 71.998 72.001 0 16.682-5.537 32.335-16.012 45.268zm-202.687 39.454c-2.751-4.788-8.864-6.44-13.653-3.687l-.424.244c-4.789 2.752-6.439 8.864-3.688 13.653a9.997 9.997 0 0 0 13.653 3.687l.426-.244c4.786-2.753 6.438-8.865 3.686-13.653zM363.934 39.691a9.955 9.955 0 0 0 4.99-1.341l34.103-19.688c4.782-2.761 6.422-8.877 3.66-13.66-2.762-4.782-8.878-6.423-13.66-3.66L358.924 21.03c-4.783 2.761-6.422 8.877-3.66 13.66a9.994 9.994 0 0 0 8.67 5.001z"/></g></svg>