<svg xmlns="http://www.w3.org/2000/svg" viewBox="0 0 507.1 397.6"><defs><style>.cls-1{fill:#2c4295;}.cls-1,.cls-2,.cls-3,.cls-4{fill-rule:evenodd;}.cls-2{fill:#ee7601;}.cls-3{fill:#fff;}.cls-4{fill:#00a1a1;}</style></defs><title>Ресурс 1</title><g id="Слой_2" data-name="Слой 2"><g id="Слой_1-2" data-name="Слой 1"><path class="cls-1" d="M252.62,128.22l17.76-10.92c1.63-1,6.93,4.31,3.53,8.15a39.93,39.93,0,0,1-4,2.79c.41,4.27,1.36,12.85,1.36,12.85l25.34,18.13s9.27,5.86,19,11.9a7.36,7.36,0,0,0-4.91,4.73l-.28.86a7.2,7.2,0,0,0-.43,2.47v.8l-19.76-11.87s-2.51-1.76-4.48.24c-9.2,9.29-34.87,73.09-36.24,73.93-3.63,2.22-6.55,3.73-10.11,6-1.53,1-7,3.4-9,5.86l-.14.17a12.58,12.58,0,0,0-.72-1.63l-1.34-2.33a7.41,7.41,0,0,0-1.21-1.59c-.31-.5-.6-1-1-1.51l-1-1.34-.15-.2a21.38,21.38,0,0,1,4.77-3.9c1.7-.9,7.88-5.35,9.59-6.06l35.56-76.58S274,155,272,153.73s-7.57-5.41-7.57-5.41l-2.7-14.79L259.46,135a5.88,5.88,0,0,1-3.43.13c-3.39-.84-4.14-5.2-3.41-6.86Zm-42.3,82.66a60,60,0,0,0,6-5.77l27.24,21.46,3.16-6.8-24.57-19.31a1.77,1.77,0,0,1-.4-2.1,32.23,32.23,0,0,1,7.29-8.15c3.31-2.52,2.17-3.75,1.76-4.35-1.78-2.63-3.8-2.23-8.88,1.16-7.38,4.92-16.54,12.16-19.24,14.34-5.55,4.47-10.24,8.3-10,8.44,1.38,1,4.37,4.94,7.31,5C203.48,214.81,205.21,215.17,210.32,210.88Z"/><path class="cls-2" d="M188.92,353.93v38.2c0,1.6-.29,2.61-.88,3a4.81,4.81,0,0,1-2.76.63h-8.12a5,5,0,0,1-2.5-.42c-.76-.55-1.14-1.63-1.14-3.23V326.55a5.14,5.14,0,0,1,.41-2.5c.56-.76,1.63-1.14,3.23-1.14h9.27a3.89,3.89,0,0,1,2.7,1,3.8,3.8,0,0,1,1,1.46l11.25,22.48A8.12,8.12,0,0,0,202,349c.24.41.47.62.68.62s.53-.26.78-.78a4.9,4.9,0,0,0,.36-.88l11.24-22.28a6.06,6.06,0,0,1,1.77-2.19,3.93,3.93,0,0,1,2.19-.62h8.74c1.6,0,2.61.29,3,.88a4.81,4.81,0,0,1,.63,2.76v65.58c0,1.6-.3,2.61-.89,3a4.81,4.81,0,0,1-2.76.63h-8.12c-1.59,0-2.6-.3-3-.89a4.9,4.9,0,0,1-.62-2.76V355.07c-.14-.41-.28-.62-.42-.62l-.31.21-8.12,19.57a5.37,5.37,0,0,1-1.25,2.19,2.37,2.37,0,0,1-1.56.52h-3.54c-1.18,0-2.12-.91-2.81-2.71l-8.33-20.4a3.52,3.52,0,0,1-.73.1Zm81.1-31h13.11a3.79,3.79,0,0,1,2.14.52,4.21,4.21,0,0,1,1.3,2.39l16.86,66.83a4.26,4.26,0,0,1,.21,1.36c0,1.18-.76,1.77-2.29,1.77h-10.2a2.72,2.72,0,0,1-2.24-.84,5.23,5.23,0,0,1-1-2.08L285.84,385a1.94,1.94,0,0,0-2.08-1.56H269.5a1.85,1.85,0,0,0-2.08,1.56l-2,8.23a3.94,3.94,0,0,1-.89,1.82,2.67,2.67,0,0,1-2.13.78h-10.1a1.75,1.75,0,0,1-2-2v-.62a1.85,1.85,0,0,0,.21-.53l16-66.83a3.83,3.83,0,0,1,1.2-2.39,4,4,0,0,1,2.24-.52Zm2.29,46.53H281c.76,0,1-.52.73-1.56l-4.58-18.43a1.38,1.38,0,0,0-.37-.67l-.36-.37a2.63,2.63,0,0,0-.73,1l-4.06,18.43c-.28,1,0,1.56.73,1.56Zm53.92-46.53h8.12c1.6,0,2.6.29,3,.88a4.82,4.82,0,0,1,.62,2.76v20.09a3.38,3.38,0,0,0,.26,1.46c.18.35.61.52,1.31.52H350.9a1.79,1.79,0,0,0,.73-.1,2.17,2.17,0,0,0,.94-2.09V326.55a5.14,5.14,0,0,1,.41-2.5c.56-.76,1.64-1.14,3.23-1.14h8.12c1.6,0,2.6.29,3,.88a4.81,4.81,0,0,1,.63,2.76v65.58a5,5,0,0,1-.42,2.5c-.56.77-1.63,1.15-3.23,1.15h-8.12c-1.59,0-2.6-.3-3-.89a4.9,4.9,0,0,1-.62-2.76V364.86a1.48,1.48,0,0,0-1.67-1.67H339.56a1.39,1.39,0,0,0-1.57,1.57v27.37c0,1.6-.29,2.61-.88,3a4.81,4.81,0,0,1-2.76.63h-8.12a5,5,0,0,1-2.5-.42c-.76-.55-1.14-1.63-1.14-3.23V326.55a5.14,5.14,0,0,1,.41-2.5c.56-.76,1.64-1.14,3.23-1.14Zm75.68,72.87H394a5,5,0,0,1-2.5-.42c-.76-.55-1.14-1.63-1.14-3.23V326.55a5.14,5.14,0,0,1,.41-2.5c.56-.76,1.63-1.14,3.23-1.14h8.12c1.6,0,2.6.29,3,.88a4.82,4.82,0,0,1,.62,2.76v34l13.95-34a8.58,8.58,0,0,1,1.72-3,3.49,3.49,0,0,1,2.34-.67h8.43c1.6,0,2.61.29,3,.88a4.81,4.81,0,0,1,.63,2.76v65.58a5,5,0,0,1-.42,2.5c-.55.77-1.63,1.15-3.23,1.15h-8.12c-1.59,0-2.6-.3-3-.89a4.81,4.81,0,0,1-.63-2.76v-35.7l-13.74,35.7a5.7,5.7,0,0,1-1.93,3,5.36,5.36,0,0,1-2.86.68Zm81.82-72.87H503c1.6,0,2.6.29,3,.88a4.81,4.81,0,0,1,.63,2.76v65.58c0,1.6-.3,2.61-.89,3a4.81,4.81,0,0,1-2.76.63h-8.12c-1.59,0-2.6-.3-3-.89a4.9,4.9,0,0,1-.62-2.76V366.32c0-.84-.38-1.25-1.15-1.25h-2a2.33,2.33,0,0,0-2.19,1.46l-12.39,27.06a3.72,3.72,0,0,1-1.2,1.72,5.41,5.41,0,0,1-2.75.47H458.75c-1.67,0-2.5-.8-2.5-2.4a4.33,4.33,0,0,1,.31-1.35L470,363.92a4,4,0,0,0,.52-1.66c0-.42-.41-.84-1.25-1.25a24.4,24.4,0,0,1-2.91-1.56,19.57,19.57,0,0,1-6.35-8,20.91,20.91,0,0,1-1.56-8.12,18.58,18.58,0,0,1,5.41-13.53q6.76-6.87,19.88-6.87Zm7.5,27.38V338a1.56,1.56,0,0,0-1.77-1.77h-4.58q-5,0-7.5,2.61a7.56,7.56,0,0,0-2.08,5.41,7.24,7.24,0,0,0,2.6,5.83,10.49,10.49,0,0,0,7,2.18h4.68C490.67,352.26,491.23,351.6,491.23,350.29Z"/><path class="cls-3" d="M174.63,336.5c-.18,5.2-2.35,42.59,2.19,43.29-.27-13.21.13-14.33-.2-27.52-.12-4.47-1.47-26.19,6.7-26.19,4.43,0,1.2-1.58-2.3-1.31C178,325,175,326.08,174.63,336.5Z"/><path class="cls-3" d="M460.69,333.7c-4.89,11.56,3.14,23.3,4.39,22.7.43-.2-.56-1.51-2.24-5.25-2-4.4-2.46-11.12,0-15.67,2.7-5,9.06-7.56,15.28-8.3,6-.72,8.44-1.62,8.89-2.2C487.72,324.1,465.43,322.53,460.69,333.7Z"/><path class="cls-3" d="M293.5,362.88s10.95,29.7,8.26,31.21c-1.64.92-6.59,1.11-9.49,1.11-.59,0-.56-.58-.51-1s1.12-.57,1.63-.56a26.78,26.78,0,0,0,5.62-.43c1.78-.52-.22-5.81-1-9C297.78,383.38,289.36,360.13,293.5,362.88Z"/><path class="cls-3" d="M325.25,362.57c.5,15.32,1.35,30.43.08,30.58-1.7.2-2.11.52-2.11-5.89,0-7.06-1.38-40.39-1-53.24,0-1.25.4-3,.76-3C325.81,331.11,325.17,360.07,325.25,362.57Z"/><path class="cls-2" d="M212.51,265.7a6.24,6.24,0,1,0,4.15,7.55A6.1,6.1,0,0,0,212.51,265.7Z"/><path class="cls-2" d="M216.4,247.61a14.51,14.51,0,0,0-2.21,4.06,20.6,20.6,0,0,0-1,5.81,38.81,38.81,0,0,0,.26,8.63l-4.64.27a49.7,49.7,0,0,0-.9-10.28,23.9,23.9,0,0,0-3.22-8.21c.28-.38,3.36-1.32,5.39-1.39C212.81,246.41,215.77,246.72,216.4,247.61Z"/><path class="cls-2" d="M193.14,288.24a11.46,11.46,0,0,0,3.75-1.71,20.85,20.85,0,0,0,4.16-4.18,39.05,39.05,0,0,0,4.76-7.2l3.95,2.45a50.11,50.11,0,0,0-5.19,8.92,23.83,23.83,0,0,0-2.09,8.56c-.45.16-3.5-.85-5.21-2C195,291.62,193.14,289.34,193.14,288.24Z"/><path class="cls-2" d="M190.9,257.83a13.91,13.91,0,0,0,2.65,3.66,21,21,0,0,0,5,3.18,38.46,38.46,0,0,0,8.06,3.12L205,272.17a50,50,0,0,0-9.82-3.18,23.93,23.93,0,0,0-8.82-.22c-.24-.41.1-3.6.82-5.51C188.17,260.72,189.82,258.06,190.9,257.83Z"/><path class="cls-2" d="M222.86,293.23a15,15,0,0,0-.85-4.62,20.47,20.47,0,0,0-3.09-5,38.5,38.5,0,0,0-5.91-6.3l3.31-3.28a49.54,49.54,0,0,0,7.47,7.12,24,24,0,0,0,7.84,4c0,.47-1.64,3.21-3.12,4.6C226.52,291.64,223.94,293.49,222.86,293.23Z"/><path class="cls-2" d="M234.92,270.27a11.74,11.74,0,0,0-4-1.11,20.54,20.54,0,0,0-5.88.51,38.49,38.49,0,0,0-8.28,2.42l-1.44-4.42a50.26,50.26,0,0,0,9.73-3.46,24.19,24.19,0,0,0,7.13-5.19c.44.18,2.12,2.91,2.7,4.86C235.68,266.5,235.63,269.43,234.92,270.27Z"/><path class="cls-4" d="M232,238.53c-17.42-11.4-42.33-6.85-53.7,11.5s-7.09,41.66,10.34,53.06,41.73,7.18,53.45-10.72,7.34-42.44-10.09-53.84ZM210.08,247c13.28-.48,24.45,10.16,24.94,23.78s-9.87,25-23.15,25.52-24.45-10.17-24.94-23.78S196.8,247.47,210.08,247Z"/><path class="cls-2" d="M334.56,183.07a6.23,6.23,0,1,0,7,5A6.1,6.1,0,0,0,334.56,183.07Z"/><path class="cls-2" d="M330.27,165.07a14.49,14.49,0,0,0-.25,4.61,20.67,20.67,0,0,0,1.61,5.67,38.4,38.4,0,0,0,3.95,7.68l-4.07,2.25a50.36,50.36,0,0,0-5.24-8.9,24.23,24.23,0,0,0-6.44-6c.09-.46,2.45-2.63,4.26-3.57C326.51,165.53,329.31,164.53,330.27,165.07Z"/><path class="cls-2" d="M326.8,211.76a11.75,11.75,0,0,0,2.64-3.17,20.47,20.47,0,0,0,1.95-5.56,38.67,38.67,0,0,0,1.19-8.55l4.63.51a49.76,49.76,0,0,0-.84,10.29,24.07,24.07,0,0,0,1.8,8.62c-.34.33-3.53.74-5.54.47C329.92,214,327.27,212.75,326.8,211.76Z"/><path class="cls-2" d="M311.66,185.28a14,14,0,0,0,4,2.16,20.88,20.88,0,0,0,5.84.73,38.19,38.19,0,0,0,8.61-.66l.49,4.63a50,50,0,0,0-10.23,1.36,23.94,23.94,0,0,0-8.05,3.6c-.4-.27-1.47-3.29-1.64-5.32C310.45,189.06,310.8,186,311.66,185.28Z"/><path class="cls-2" d="M355.77,203.45a14.93,14.93,0,0,0-2.77-3.81,20.84,20.84,0,0,0-4.95-3.2,38.74,38.74,0,0,0-8-3.14l1.57-4.38a50.18,50.18,0,0,0,9.81,3.21,24.11,24.11,0,0,0,8.81.25c.24.41-.1,3.6-.83,5.5C358.38,200.43,356.84,203.21,355.77,203.45Z"/><path class="cls-2" d="M356.75,177.53a11.58,11.58,0,0,0-4.06.71,20.65,20.65,0,0,0-5.09,3,38.62,38.62,0,0,0-6.43,5.76l-3.2-3.37a49.87,49.87,0,0,0,7.28-7.32,24,24,0,0,0,4.2-7.75c.47,0,3.17,1.71,4.53,3.22C355.81,173.8,357,176.47,356.75,177.53Z"/><path class="cls-4" d="M340.45,150.13c-20.64-2.77-41.15,12.08-43.5,33.53s11.57,40.65,32.2,43.42,40.76-11.5,43.61-32.71-11.67-41.46-32.31-44.24Zm-16.15,17.1c11.78-6.16,26.44-1.37,32.75,10.7s1.89,26.85-9.89,33-26.43,1.37-32.75-10.71S312.53,173.39,324.3,167.23Z"/><path class="cls-1" d="M118.39,110.55s-2.88,9,5.34,19.89c10.61,14.06,48.91,11.46,50.18,16.52.69,2.74-1.14,5.55-4.47,12.14s-2.82,8.33-4,16.52S164,186.82,164,189.8c0,.68,3.32-.46,3.29.09a22.41,22.41,0,0,1-2,7.45c-.44.61-1.78.1-2,1.69-.19,1.21-.76,7,.06,10.63a6.85,6.85,0,0,0,1.58,3c.78,1,3.14,2.08,8,.75,5.35-1.45,6.18-2.43,8.18-3.81a2,2,0,0,0,.33-.32c.12-.13.2-.07.33.1a5.19,5.19,0,0,0,2.47,2.14c2.12.91,5.88.19,7.87-1.52s9.36-8,15.34-12.28,13.1-7.43,13.61-9.45-1.72-5.36-4.46-5.06-7.86,1.72-11.86,2c-3.24.22-7.8,1.19-9.7-2.38-.94-1.79-.81-3.08-.44-3.51s2.25.3,2.34-.27c0-.16,5.51-39.87,5.46-40.54-.38-5.19-1.86-9.26-6.55-11.75-6.07-3.23-11.11-5.78-17.84-10.1,0,0-17.91-2-24.35-3.81s-7.81-1.66-12,.82-6.9,5-13.36,1.21-9.64-4.15-9.64-4.15Z"/><path class="cls-3" d="M176.4,159.24s-1.13,11,1.23,18A76.44,76.44,0,0,1,181,190.45c.12,6.17-1.6,7.79-1.29,8,.26-7.3-1.89-13.38-4.23-20.28-1.77-5.21-1-10.63-.39-13.77.27-1.31.46-3.5.64-4.64Z"/><path class="cls-1" d="M21.15,256a58.38,58.38,0,0,1,13.62,1.47,35.24,35.24,0,0,1,5.75,1.9,27.23,27.23,0,0,1,4.91,2.74,22.74,22.74,0,0,1,4,3.61h0a22.29,22.29,0,0,1,3,4.44,21.83,21.83,0,0,1,1.87,5.33,29.16,29.16,0,0,1,.61,6.13,23.84,23.84,0,0,1-2.65,11.5,20.93,20.93,0,0,1-8,8.09,40.3,40.3,0,0,1-12.24,4.55,77.8,77.8,0,0,1-16,1.49H4.28a4.56,4.56,0,0,1-1.65-.3h0A4,4,0,0,1,1.22,306a4.19,4.19,0,0,1-.92-1.42A4.5,4.5,0,0,1,0,303V236a4.68,4.68,0,0,1,.29-1.64,4.35,4.35,0,0,1,.89-1.43h0a3.93,3.93,0,0,1,1.41-1,4.27,4.27,0,0,1,1.68-.33H45.14a4.1,4.1,0,0,1,1.63.34h0a4.3,4.3,0,0,1,1.37.94,4.17,4.17,0,0,1,1,1.42,4.35,4.35,0,0,1,.32,1.69v9.55a4.29,4.29,0,0,1-1.27,3.1h0a4.38,4.38,0,0,1-1.36.94,4.18,4.18,0,0,1-1.64.33H18.55a.63.63,0,0,0-.18.14h0a.69.69,0,0,0-.13.17.62.62,0,0,0,0,.18v4.67a1.75,1.75,0,0,0,.06.5,1,1,0,0,0,.16.3h0l.09.08h0a.34.34,0,0,0,.17,0Zm0,33a44.2,44.2,0,0,0,7.57-.56,14.64,14.64,0,0,0,4.73-1.54,6.56,6.56,0,0,0,2.38-2.25,5.89,5.89,0,0,0,.76-3.06,6,6,0,0,0-.76-3.12,6.18,6.18,0,0,0-2.37-2.23,14.94,14.94,0,0,0-4.73-1.51,45.39,45.39,0,0,0-7.58-.55H18.61a.31.31,0,0,0-.15,0h0l-.09.08h0a.53.53,0,0,0-.12.17.67.67,0,0,0,0,.23v13.82a.8.8,0,0,0,0,.31s0,.06.06.09l.1.08h0l.19,0Zm89.33-57.43a4.14,4.14,0,0,1,1.63.34h0a4.46,4.46,0,0,1,2.32,2.36,4.54,4.54,0,0,1,.32,1.69v9.55a4.45,4.45,0,0,1-.32,1.68,4.27,4.27,0,0,1-1,1.42h0a4.38,4.38,0,0,1-1.36.94,4.18,4.18,0,0,1-1.64.33H83.85l0,.05a1.66,1.66,0,0,0-.2.4h0a1,1,0,0,0,0,.35v10.07a2,2,0,0,0,.06.53h0a1.07,1.07,0,0,0,.16.32s0,.05,0,.05h26.66a4.32,4.32,0,0,1,1.59.3,4.52,4.52,0,0,1,1.37.88,4,4,0,0,1,1,1.42,4.27,4.27,0,0,1,.33,1.68v9.66a4.3,4.3,0,0,1-.33,1.68,4.06,4.06,0,0,1-1,1.42,4.5,4.5,0,0,1-1.36.87h0a4.38,4.38,0,0,1-1.6.31H83.82a.61.61,0,0,0-.12.09.58.58,0,0,0-.11.18.61.61,0,0,0,0,.22v8.13a.91.91,0,0,0,0,.27l.06.08a.71.71,0,0,0,.19.13l.11,0h26.53a4.13,4.13,0,0,1,1.59.31,4.31,4.31,0,0,1,1.37.87,4,4,0,0,1,1,1.42,4.27,4.27,0,0,1,.33,1.68V303a4.3,4.3,0,0,1-.33,1.68,4.06,4.06,0,0,1-1,1.42,4.5,4.5,0,0,1-1.36.87h0a4.38,4.38,0,0,1-1.6.31H69.62a4.27,4.27,0,0,1-1.68-.33,4,4,0,0,1-1.42-1,4.42,4.42,0,0,1-.87-1.37,4.13,4.13,0,0,1-.31-1.59V236a4.83,4.83,0,0,1,.28-1.69,4.07,4.07,0,0,1,.94-1.47h0a4.17,4.17,0,0,1,3.06-1.22ZM83.86,249.91Zm89.75-18.31a4.14,4.14,0,0,1,1.63.34h0a4.46,4.46,0,0,1,2.32,2.36,4.54,4.54,0,0,1,.32,1.69v9.55a4.45,4.45,0,0,1-.32,1.68,4.27,4.27,0,0,1-.95,1.42h0a4.49,4.49,0,0,1-1.36.94,4.18,4.18,0,0,1-1.64.33H147l-.11.1a1.12,1.12,0,0,0-.16.25h0a.3.3,0,0,0,0,.14V303a4.33,4.33,0,0,1-.31,1.59h0a4.42,4.42,0,0,1-.87,1.37,4.06,4.06,0,0,1-1.42,1h0a4.27,4.27,0,0,1-1.68.33h-9.65a4.27,4.27,0,0,1-1.68-.33,4,4,0,0,1-1.42-1,4.65,4.65,0,0,1-.88-1.37,4.32,4.32,0,0,1-.3-1.59V236a4.83,4.83,0,0,1,.28-1.69,4.07,4.07,0,0,1,.94-1.47h0a4.15,4.15,0,0,1,3.06-1.22ZM147,249.92h0Z"/><path class="cls-1" d="M259.76,307.26a4.37,4.37,0,0,1-1.63-.3h0a4,4,0,0,1-1.4-.91,4.08,4.08,0,0,1-.91-1.4,4.41,4.41,0,0,1-.3-1.63V236.76a4.61,4.61,0,0,1,.29-1.62,4.14,4.14,0,0,1,.88-1.41h0a4,4,0,0,1,1.39-1,4.43,4.43,0,0,1,1.67-.32h14.68a70.47,70.47,0,0,1,7.34.36,44.17,44.17,0,0,1,6.25,1.05h0a31.19,31.19,0,0,1,5.21,1.76,21.45,21.45,0,0,1,4.26,2.51,18,18,0,0,1,3.26,3.19,16.35,16.35,0,0,1,2.26,3.85,20.77,20.77,0,0,1,1.27,4.35,26.36,26.36,0,0,1,.43,4.85,24.6,24.6,0,0,1-.34,4.11,19.34,19.34,0,0,1-1.05,3.72h0a27.5,27.5,0,0,1-1.55,3.25,27.21,27.21,0,0,1-1.94,3h0l0,.05a2.62,2.62,0,0,0,.29.26l.06,0a19.94,19.94,0,0,1,5.68,7.23,22.13,22.13,0,0,1,1.89,9.29,27.27,27.27,0,0,1-.42,4.85,21,21,0,0,1-1.27,4.35,16.7,16.7,0,0,1-2.26,3.85,18.27,18.27,0,0,1-3.26,3.19,20.77,20.77,0,0,1-4.27,2.5,31.18,31.18,0,0,1-5.21,1.78,43.69,43.69,0,0,1-6.25,1,70.33,70.33,0,0,1-7.34.36Zm14.18-28.36-.15,0h0a.31.31,0,0,0-.1.08h0a.48.48,0,0,0-.11.17.65.65,0,0,0,0,.22v8.95a2,2,0,0,0,.06.53h0a1.35,1.35,0,0,0,.15.32l.05.05h3.64q7.1,0,9.92-1.58a5.13,5.13,0,0,0,1.81-1.59h0a3.55,3.55,0,0,0,.53-1.94,3.45,3.45,0,0,0-.53-1.89h0a5.47,5.47,0,0,0-1.84-1.65q-2.8-1.67-9.89-1.67Zm0-28.35h-.15l0,0a1.2,1.2,0,0,0-.16.32h0a1.41,1.41,0,0,0-.05.43v9a.47.47,0,0,0,0,.19h0a.37.37,0,0,0,.07.1h0a.26.26,0,0,0,.1.07h0l.2,0c5,0,8.45-.55,10.36-1.63a5.4,5.4,0,0,0,1.86-1.63,3.35,3.35,0,0,0,.53-1.86,3.49,3.49,0,0,0-.53-1.94h0a5,5,0,0,0-1.8-1.59q-2.82-1.57-9.92-1.58ZM359,232.42a4.12,4.12,0,0,1,1.62.33h0a4.57,4.57,0,0,1,1.36.93,4.36,4.36,0,0,1,.94,1.41,4.43,4.43,0,0,1,.32,1.67v9.45a4.38,4.38,0,0,1-.32,1.66,4.2,4.2,0,0,1-.94,1.41h0a4.3,4.3,0,0,1-1.35.93,4,4,0,0,1-1.62.33H332.66l0,0a1.45,1.45,0,0,0-.2.39h0a1,1,0,0,0-.05.35v10a2,2,0,0,0,.06.53h0a1.35,1.35,0,0,0,.15.32l.05.05H359a4.28,4.28,0,0,1,1.58.31,4.37,4.37,0,0,1,1.35.86,4,4,0,0,1,1,1.41,4.17,4.17,0,0,1,.33,1.66V276a4.22,4.22,0,0,1-.33,1.67,3.87,3.87,0,0,1-1,1.4,4.13,4.13,0,0,1-1.35.86h0a4.23,4.23,0,0,1-1.58.3H332.63l-.12.1a.69.69,0,0,0-.11.17.61.61,0,0,0,0,.22v8a.84.84,0,0,0,0,.26l.06.09.18.13H359a4.28,4.28,0,0,1,1.58.31,4.37,4.37,0,0,1,1.35.86,4,4,0,0,1,1,1.4,4.25,4.25,0,0,1,.33,1.67V303a4.25,4.25,0,0,1-.33,1.67,4,4,0,0,1-1,1.4,4.3,4.3,0,0,1-1.35.86h0a4,4,0,0,1-1.58.31H318.58a4.34,4.34,0,0,1-1.66-.32,4.15,4.15,0,0,1-1.41-1,4.37,4.37,0,0,1-.86-1.35,4.28,4.28,0,0,1-.31-1.58V236.76a4.76,4.76,0,0,1,.29-1.67,3.94,3.94,0,0,1,.92-1.45h0a4.15,4.15,0,0,1,3-1.21Zm-26.34,18.12h0Zm35.18,42.93a4.66,4.66,0,0,1,.29-1.63h0a4,4,0,0,1,.92-1.39h0a4,4,0,0,1,1.4-.91,4.4,4.4,0,0,1,1.62-.3,5.66,5.66,0,0,0,1.85-.25h0a2.09,2.09,0,0,0,.93-.6,4.16,4.16,0,0,0,.71-1.32h0a11.54,11.54,0,0,0,.49-2.37c.11-1,.18-2.17.2-3.44s0-2.77-.06-4.4-.12-3.45-.15-5.49q-.06-3.41-.06-6.54V236.76a4.73,4.73,0,0,1,.31-1.71h0a3.92,3.92,0,0,1,1-1.45h0a4.14,4.14,0,0,1,1.41-.88,4.61,4.61,0,0,1,1.62-.29h40.32a4.61,4.61,0,0,1,1.62.29,4.14,4.14,0,0,1,1.41.88,4,4,0,0,1,1,1.46h0a4.73,4.73,0,0,1,.31,1.71V303a4,4,0,0,1-.33,1.62,4.3,4.3,0,0,1-.93,1.35h0a4.2,4.2,0,0,1-1.41.94h0a4.42,4.42,0,0,1-1.66.32h-9.45a4.42,4.42,0,0,1-1.66-.32h0a4.36,4.36,0,0,1-1.41-.94,4.45,4.45,0,0,1-.93-1.36h0a4,4,0,0,1-.33-1.62V251.34a.78.78,0,0,0-.05-.31h0a1.42,1.42,0,0,0-.21-.37h0a.57.57,0,0,0-.1-.11H394.4a.32.32,0,0,0-.11.1.9.9,0,0,0-.16.24h0a.46.46,0,0,0,0,.14v20.21q0,6.69-.06,13.84a41,41,0,0,1-.48,6.1,27.9,27.9,0,0,1-1.39,5.3,15.66,15.66,0,0,1-2.62,4.53,16.2,16.2,0,0,1-4,3.42,18.13,18.13,0,0,1-5.8,2.14,38.87,38.87,0,0,1-7.66.68,4.45,4.45,0,0,1-1.63-.3h0a4.14,4.14,0,0,1-1.39-.91h0a4.11,4.11,0,0,1-.92-1.4h0a4.62,4.62,0,0,1-.29-1.63Z"/><path class="cls-1" d="M118.39,110.55c1.14-12.38,15-29.92,24.42-37.5,10.15-8.13,25.51-16,33.8-19.76,1.75-.79,5.81-3.07,8.84-4.06l.28-.1A.83.83,0,0,0,186,49a3.16,3.16,0,0,0,1.12-2.85c-.16-.85-1.43-1.27-2.14-3.11a11.73,11.73,0,0,1-.79-2.72s-3.9-.52-4.22-.64.12-2.64.1-6.88a36,36,0,0,1,1.09-9.13C185.45,7.1,201.53-.73,217.5,2.48c10.08,2,25.71,14.73,24,32.55l-3.17-.51A11.73,11.73,0,0,1,236.6,40c-1.51,2-3.15,4.31-3.27,5.92a14.07,14.07,0,0,0,.38,3.73c.23,1,1.37,2.54.79,3.37a3.55,3.55,0,0,1-1.84.93c-.62.22-1.1.41-1.22,1.1a10.85,10.85,0,0,1-1.34,3.43c-3.79,6.87-5,6.72-7.71,6-.95-.24-5-1.91-5.62-1.95a4.64,4.64,0,0,0-2,.92c-.68.57-1.09,1.39-.91,1.78,0,0,12.58,9.58,16.26,13.35,1.68,1.72,6.85,7.08,7.22,7.42,1.17,1.05,6.74,5.05,7.38,5.56s5.89,4.6,6.17,4.87c4.13,3.88,8.15,8.35,8.65,9,1,1.32-1.36,3.48-1.34,3.52.16.47.92,1.32,2.65,2,2.23.88,3,1.46,3.49,1.62.32.1.31.1.76-.14,1.19-.62,4.33-1,7.41-1.1,2.21,0,5.54,3.07,6.26,6.1.35,1.51.32,5-1.32,5.58-2.67,1-3.23-2.12-4.1-3.19-2.26-2.79-6.21-.55-6.17-.55a2,2,0,0,0,.4,2.91c1.68,1.46,1.42,5.13.14,6.33s-2.86,2-5,.42-3.78-3.5-6.17-2.9c-1.31.33-4.47,1.54-4.26,3.66a8.61,8.61,0,0,0,.89,3.29,2.29,2.29,0,0,1-2.24.42,6.66,6.66,0,0,1-3.43-2c-2.28-3-1.87-3.56-4.72-4.72s-5.28-2.08-5.28-2.08l-1.53,3.83c-.11.27-12.23-7.7-16.57-12.2-6.36-6.6-14.84-12.4-15.13-12.32-5.12,1.56-10.1,2.48-15.14,5-5.4,2.65-9.51,4.86-11.19,7.89s-8.26,0-8.26,0c-27.47-5.63-13.47-3.52-34.15.45C129.8,118.23,118.39,110.55,118.39,110.55Z"/><path class="cls-2" d="M467.8,263.55a6.24,6.24,0,1,0,7,5A6.1,6.1,0,0,0,467.8,263.55Z"/><path class="cls-2" d="M463.51,245.55a14.5,14.5,0,0,0-.24,4.61,20.38,20.38,0,0,0,1.6,5.68,38.45,38.45,0,0,0,3.95,7.67l-4.07,2.25a49.76,49.76,0,0,0-5.24-8.89,23.84,23.84,0,0,0-6.44-6c.09-.47,2.46-2.64,4.26-3.58C459.75,246,462.55,245,463.51,245.55Z"/><path class="cls-2" d="M460,292.24a11.53,11.53,0,0,0,2.64-3.16,20.68,20.68,0,0,0,2-5.57,38,38,0,0,0,1.18-8.55l4.63.51a49.76,49.76,0,0,0-.84,10.29,24.17,24.17,0,0,0,1.8,8.63c-.34.33-3.52.74-5.54.47C463.17,294.49,460.52,293.23,460,292.24Z"/><path class="cls-2" d="M444.91,265.76a13.9,13.9,0,0,0,4,2.16,20.19,20.19,0,0,0,5.85.73,38.84,38.84,0,0,0,8.61-.65l.48,4.62A50.42,50.42,0,0,0,453.59,274a24.07,24.07,0,0,0-8,3.59c-.4-.26-1.47-3.29-1.63-5.32C443.69,269.54,444,266.44,444.91,265.76Z"/><path class="cls-2" d="M489,283.93a14.89,14.89,0,0,0-2.76-3.81,20.54,20.54,0,0,0-5-3.19,38.74,38.74,0,0,0-8-3.14l1.57-4.38a49.79,49.79,0,0,0,9.81,3.2,23.56,23.56,0,0,0,8.81.25c.25.41-.1,3.61-.83,5.51C491.63,280.91,490.09,283.7,489,283.93Z"/><path class="cls-2" d="M490,258a11.62,11.62,0,0,0-4.06.71,20.81,20.81,0,0,0-5.09,3,37.83,37.83,0,0,0-6.42,5.77l-3.21-3.38a49.81,49.81,0,0,0,7.29-7.31,24,24,0,0,0,4.19-7.76c.48,0,3.17,1.72,4.54,3.23C489.06,254.28,490.27,257,490,258Z"/><path class="cls-4" d="M473.69,230.62c-20.63-2.78-41.15,12.07-43.5,33.53s11.57,40.64,32.21,43.42,40.75-11.51,43.6-32.71-11.67-41.47-32.31-44.24Zm-16.15,17.09c11.78-6.16,26.44-1.36,32.76,10.71s1.88,26.85-9.89,33-26.44,1.37-32.76-10.7S445.77,253.87,457.54,247.71Z"/><path class="cls-3" d="M198,204.26c8.16-6.1,15-6.68,21.81-14.82.07-.08.22-.31.4-.56a4,4,0,0,1,.92-1.12c1.08,2.12-2.51,5.5-6.83,8.61-2.56,1.84-7.17,3.69-10.39,5.78s-6,4.8-8.63,6.58a4.52,4.52,0,0,1-2.68,1.07C192.44,209.76,192.64,208.28,198,204.26Z"/><path class="cls-3" d="M253.07,132.44c-.18-.89-1.69-1.14-.48-3.91,1.89-2.87,5.16-3.63,8.18-1.23,1.16.92,2.13,2.12,4.33,2.12,1.77-.12,1.48-.32,2.87-1.16.19.32-1.5,2.13-3.64,2.07-3.1-.44-5.3-3.22-6.84-3.22-2.1,0-3.66.56-4.5,2.48C252.66,131.36,253.23,132.18,253.07,132.44Z"/><path class="cls-4" d="M184.51,211.78c2.12.92,5.63,0,7.62-1.75,8.36-7.19,12-9,20.44-14.22,4.63-2.85,8.12-6,8.51-7.51.51-2-1.72-5.36-4.46-5.06s-7.86,1.72-11.86,2c-5.36.37-5.67-1.62-6.52-1.84-2-.52-1.74.88-1.32,2.33-.21,1.27-2.44,3.51-3.59,4.9-2.86,3.47-9.12,5.73-13.3,3.59-.11-.05-.18-.08-.25,0a.42.42,0,0,0-.16.3c-.21,2.27-1.05,8-.51,10.4C179.72,207.6,182.28,210.82,184.51,211.78Z"/><path class="cls-4" d="M163.39,198.56c.28-.84.39-1.49,1.12-1.5.9,0,.89.49,1.46.7a12.32,12.32,0,0,0,1.54.46,25.39,25.39,0,0,0,5.46.53c2.08.08,4.51.11,6.48-.86.44-.22-.94,3.76-.3,6.86.46,2.22,2.55,4,2.31,4.56-.4.93-4,2.91-7,3.71s-5.28,1.66-7.08,1.09a6.24,6.24,0,0,1-4.19-4A25.58,25.58,0,0,1,163.39,198.56Z"/><path class="cls-4" d="M118.33,110.87c1.14-12.38,14.29-30.92,23.76-38.51,10.15-8.13,25.38-16.36,33.67-20.1,4.1-1.85,8.55-2.53,10-3.13,4.1.66,4.76,10.32,15.15,13.61,5.76,1.82,10.79,3.37,13,2.48a29.86,29.86,0,0,1,6.2,4c1.62,1.28,3,2.89,4.47,4.21,1.91,1.7,4.11,3.52,5.77,5.21s6.85,7.08,7.22,7.41c1.17,1,6.74,5,7.38,5.56,6.52,5.23,9.19,6.61,14.82,13.87.89,1.15-1,3.27-1.41,3.72h-.29c-4.13,0-6.24,2.72-7.48,6.26-.25,0-.51.11-.76.18a7.52,7.52,0,0,0-1.95.48c-2.66.72-9.42,5.22-11.31,11.2l-.57,1.41c-.1.26-12.22-7.7-16.57-12.2-6.36-6.6-14.77-12.72-15.06-12.64-5.84,1.78-23.22,8-26.33,12.85-.06.08-.63-.88-2.33-2.33-2-1.72-5.69-2.85-9.08-3.26-9.24-1.14-23.16,5.79-31.53,7.39C129.27,119.61,118.33,110.87,118.33,110.87Z"/><path class="cls-3" d="M178,116.69a74.06,74.06,0,0,0-11.37-3.11c-12.72-2.1-24,7-38.23,5.35-4.12-.89-7.23-3.09-10.1-8.06,5.07,4.39,14.69,7.61,19.51,5.8,8.6-3.25,20.06-6.75,29.43-5.49C176.08,112.36,178.62,116.9,178,116.69Z"/><path class="cls-3" d="M174.37,277.68c2,18.11,21.51,30.68,41.32,29.41,2.61-.17-5.75-.19-14.63-3.37-8.41-3-17.17-9-21.33-16.24-3.34-5.82-4.12-15.63-2.28-22.89a50,50,0,0,1,8.15-16.89C175.83,254.17,173.31,268.18,174.37,277.68Z"/><path class="cls-3" d="M432.87,276c2,18.1,21.51,30.68,41.32,29.41,2.61-.17-5.75-.19-14.63-3.37-8.41-3-17.17-9-21.33-16.24-3.34-5.82-4.12-15.63-2.28-22.9a49.76,49.76,0,0,1,8.16-16.88C434.33,252.53,431.81,266.53,432.87,276Z"/><path class="cls-3" d="M298.81,194.12c2,18.11,21.21,31.51,41,30.24,2.61-.17-5.75-.19-14.63-3.37-8.41-3-16.87-9.84-21-17.07-3.34-5.82-4.12-15.63-2.28-22.9a49.76,49.76,0,0,1,8.16-16.88C300.27,170.61,297.75,184.61,298.81,194.12Z"/><path class="cls-3" d="M229.11,95.68c5.81,7.44,15.84,12.91,21.13,19.56-6.87-2.6-18.45-12.59-23.28-18.79-6.4-8.17-10.88-15.66-16.12-21.33A23.92,23.92,0,0,0,205.31,71C217.49,73.61,221.6,86.09,229.11,95.68Z"/><path class="cls-4" d="M232,239.19l-.75-.48a38.45,38.45,0,0,0-27.91-4.83,36.88,36.88,0,0,0-23.66,15.86c-.19.29-.36.54-.49.75a40.12,40.12,0,0,0-5.51,28.8,35.9,35.9,0,0,0,15.66,23.39,38.61,38.61,0,0,0,28.71,5.47,37,37,0,0,0,23.85-16h0a39.75,39.75,0,0,0,5.79-28.89A36.37,36.37,0,0,0,232,239.19Zm-.08-1.57c.31.19.57.35.79.5h0A37.62,37.62,0,0,1,249,263a41,41,0,0,1-6,29.83h0a38.19,38.19,0,0,1-24.67,16.56,39.89,39.89,0,0,1-29.66-5.66,37.13,37.13,0,0,1-16.22-24.22,41.36,41.36,0,0,1,5.69-29.71c.18-.31.35-.57.49-.79a38.18,38.18,0,0,1,24.49-16.41,39.76,39.76,0,0,1,28.83,5Zm-21.51,8.85h0a24.34,24.34,0,0,1,17.71,6.78A25.55,25.55,0,0,1,236,270.87v0h0A25.54,25.54,0,0,1,229.44,289a24.36,24.36,0,0,1-17.2,8h0a24.28,24.28,0,0,1-17.7-6.78,25.56,25.56,0,0,1-7.88-17.61v0h0a25.58,25.58,0,0,1,6.58-18.12,24.3,24.3,0,0,1,17.19-8Zm0,1.29h0a23.08,23.08,0,0,1,16.8,6.43,24.25,24.25,0,0,1,7.47,16.71h0v0a24.28,24.28,0,0,1-6.24,17.24,23.07,23.07,0,0,1-16.27,7.62h0a23.06,23.06,0,0,1-16.8-6.42,24.3,24.3,0,0,1-7.48-16.71h0v0a24.28,24.28,0,0,1,6.25-17.23,23,23,0,0,1,16.26-7.62Z"/><path class="cls-4" d="M489.43,237.35l-.76-.49a38.47,38.47,0,0,0-27.9-4.83,36.91,36.91,0,0,0-23.67,15.86c-.19.29-.35.54-.48.76a40.12,40.12,0,0,0-5.52,28.8,35.91,35.91,0,0,0,15.67,23.39,38.62,38.62,0,0,0,28.7,5.47,37,37,0,0,0,23.86-16h0a39.7,39.7,0,0,0,5.79-28.89,36.37,36.37,0,0,0-15.69-24.06Zm-.09-1.58.79.5h0a37.64,37.64,0,0,1,16.25,24.91,41,41,0,0,1-6,29.82h0a38.31,38.31,0,0,1-24.68,16.56,39.9,39.9,0,0,1-29.66-5.66,37.21,37.21,0,0,1-16.22-24.22A41.39,41.39,0,0,1,435.53,248l.49-.78a38.2,38.2,0,0,1,24.49-16.41,39.79,39.79,0,0,1,28.83,5Zm-21.5,8.86h0a24.34,24.34,0,0,1,17.7,6.78A25.53,25.53,0,0,1,493.41,269v0h0a25.57,25.57,0,0,1-6.58,18.11,24.31,24.31,0,0,1-17.19,8h0a24.34,24.34,0,0,1-17.7-6.78,25.51,25.51,0,0,1-7.87-17.62v0h0a25.52,25.52,0,0,1,6.57-18.11,24.35,24.35,0,0,1,17.19-8.05Zm0,1.28h0a23.07,23.07,0,0,1,16.8,6.43,24.26,24.26,0,0,1,7.48,16.71h0v0a24.28,24.28,0,0,1-6.25,17.23,23.06,23.06,0,0,1-16.27,7.63h0a23.07,23.07,0,0,1-16.8-6.43,24.25,24.25,0,0,1-7.47-16.71h0v0a24.27,24.27,0,0,1,6.24-17.23,23.06,23.06,0,0,1,16.27-7.63Z"/><path class="cls-4" d="M356.1,156.48l-.75-.48a38.5,38.5,0,0,0-27.91-4.83A36.92,36.92,0,0,0,303.77,167l-.48.75a40.17,40.17,0,0,0-5.52,28.8A35.9,35.9,0,0,0,313.44,220a38.65,38.65,0,0,0,28.71,5.48,37,37,0,0,0,23.85-16h0a39.7,39.7,0,0,0,5.78-28.89,36.34,36.34,0,0,0-15.69-24.06Zm-.08-1.57.79.5h0a37.62,37.62,0,0,1,16.24,24.9,41,41,0,0,1-6,29.83h0a38.26,38.26,0,0,1-24.67,16.56,39.94,39.94,0,0,1-29.66-5.66,37.18,37.18,0,0,1-16.22-24.22,41.42,41.42,0,0,1,5.68-29.72c.19-.31.36-.57.5-.78a38.14,38.14,0,0,1,24.49-16.41,39.7,39.7,0,0,1,28.83,5Zm-21.51,8.86h0a24.36,24.36,0,0,1,17.71,6.78,25.51,25.51,0,0,1,7.87,17.61v0h0a25.48,25.48,0,0,1-6.58,18.11,24.35,24.35,0,0,1-17.19,8h0a24.32,24.32,0,0,1-17.7-6.78A25.6,25.6,0,0,1,310.72,190v0h0a25.6,25.6,0,0,1,6.58-18.12,24.34,24.34,0,0,1,17.19-8Zm0,1.28h0a23,23,0,0,1,16.8,6.43,24.25,24.25,0,0,1,7.47,16.71h0v0a24.27,24.27,0,0,1-6.24,17.23,23.08,23.08,0,0,1-16.27,7.63h0a23.07,23.07,0,0,1-16.8-6.43A24.3,24.3,0,0,1,312,189.93h0v0a24.25,24.25,0,0,1,6.25-17.23,23,23,0,0,1,16.26-7.63Z"/><path class="cls-2" d="M189.31,357.79V393c0,1.93-.43,3.19-1.3,3.8a4,4,0,0,1-1.47.62,8.47,8.47,0,0,1-1.83.18h-8.12a10.52,10.52,0,0,1-1.72-.12,3.24,3.24,0,0,1-1.31-.46l0,0a3.29,3.29,0,0,1-1.2-1.68A6.91,6.91,0,0,1,172,393V327.42a10.52,10.52,0,0,1,.12-1.72,3.34,3.34,0,0,1,.46-1.31l0,0a3.38,3.38,0,0,1,1.68-1.2,7,7,0,0,1,2.33-.35h9.26a5,5,0,0,1,1.8.33,4.87,4.87,0,0,1,1.55,1h0a4.36,4.36,0,0,1,.71.77,5.64,5.64,0,0,1,.56,1l11.22,22.45,0,.07a6.26,6.26,0,0,0,.36.75c.07-.15.13-.28.17-.38h0v-.14l.1-.21,11.24-22.28v0a10,10,0,0,1,1-1.48,5.22,5.22,0,0,1,1.13-1h0A4.79,4.79,0,0,1,217,323a5.15,5.15,0,0,1,1.43-.2h8.75a7.83,7.83,0,0,1,2.22.27,2.8,2.8,0,0,1,1.58,1,4,4,0,0,1,.62,1.47,8.5,8.5,0,0,1,.18,1.84V393c0,1.93-.43,3.19-1.29,3.8a4.08,4.08,0,0,1-1.48.62,8.4,8.4,0,0,1-1.83.18h-8.12a8.14,8.14,0,0,1-2.22-.26,2.77,2.77,0,0,1-1.58-1,4.1,4.1,0,0,1-.62-1.47,8.5,8.5,0,0,1-.18-1.84V358.58l-7,16.88h0a10.19,10.19,0,0,1-.68,1.49h0a3.64,3.64,0,0,1-.84,1.06,3.25,3.25,0,0,1-1,.57h0a3.71,3.71,0,0,1-1.16.18h-3.54q-2.43,0-3.7-3.31h0l-7.21-17.66ZM187.39,393V353.84h1l.2,0h0l.29-.06.8-.2.32.77,8.32,20.4v0c.53,1.4,1.17,2.09,1.92,2.09h3.54a1.52,1.52,0,0,0,.55-.08h0a1.18,1.18,0,0,0,.4-.21,2.22,2.22,0,0,0,.4-.55h0a7.76,7.76,0,0,0,.56-1.24v0l8.12-19.57.11-.27.24-.16.32-.21.24-.16H215a1.16,1.16,0,0,1,1,.58h0a2.72,2.72,0,0,1,.32.7l.05.16V393a7.09,7.09,0,0,0,.13,1.42,2.54,2.54,0,0,0,.32.79,1.06,1.06,0,0,0,.56.29,6.17,6.17,0,0,0,1.68.18h8.12a6.26,6.26,0,0,0,1.41-.13,2.3,2.3,0,0,0,.8-.31c.31-.23.47-1,.47-2.24V327.42a6.3,6.3,0,0,0-.13-1.42,2.07,2.07,0,0,0-.32-.79,1.08,1.08,0,0,0-.55-.3,6.22,6.22,0,0,0-1.68-.18h-8.75a3.28,3.28,0,0,0-.91.12,2.63,2.63,0,0,0-.74.34h0a2.84,2.84,0,0,0-.7.66,7.39,7.39,0,0,0-.75,1.15h0l-11.2,22.19a2.63,2.63,0,0,1-.1.3c-.07.15-.16.37-.29.65h0a3.06,3.06,0,0,1-.57.86h0a1.49,1.49,0,0,1-1.08.48,1.41,1.41,0,0,1-1-.41,3,3,0,0,1-.53-.69,9.85,9.85,0,0,1-.63-1.26L188.74,326.7v0a4.7,4.7,0,0,0-.38-.67,2.88,2.88,0,0,0-.4-.44l0,0a2.79,2.79,0,0,0-.94-.59,3.1,3.1,0,0,0-1.12-.2h-9.26a5.21,5.21,0,0,0-1.69.23,1.69,1.69,0,0,0-.75.49,1.93,1.93,0,0,0-.16.56,8.9,8.9,0,0,0-.09,1.41V393a5.19,5.19,0,0,0,.23,1.68,1.55,1.55,0,0,0,.52.77,1.81,1.81,0,0,0,.53.14,8.9,8.9,0,0,0,1.41.09h8.12a6.26,6.26,0,0,0,1.41-.13,2.17,2.17,0,0,0,.79-.31c.32-.23.48-1,.48-2.24Zm14.87-44.23s0,.16,0,.09v-.08Zm67.18-26h13.12A6.32,6.32,0,0,1,284,323a3.82,3.82,0,0,1,1.23.53h0a3.26,3.26,0,0,1,1,1.2,8.82,8.82,0,0,1,.67,1.73v0l16.87,66.83h0a4.94,4.94,0,0,1,.17.74,5.71,5.71,0,0,1,.07.84,2.5,2.5,0,0,1-.95,2.09,3.7,3.7,0,0,1-2.3.64H290.57a3.6,3.6,0,0,1-3-1.19,5.85,5.85,0,0,1-.71-1.13,7.06,7.06,0,0,1-.46-1.32h0l-2.08-7.9a1.14,1.14,0,0,0-.38-.65,1.28,1.28,0,0,0-.78-.2H268.92c-.65,0-1,.27-1.14.79v0l-2,8.19h0a5,5,0,0,1-.4,1.2,5.26,5.26,0,0,1-.7,1.06,3.59,3.59,0,0,1-2.86,1.11H251.75a2.6,2.6,0,0,1-2.94-2.94v-.84l.1-.21.12-.26,0-.05,16-66.82a7.92,7.92,0,0,1,.59-1.75,3.09,3.09,0,0,1,1-1.23h0a3.6,3.6,0,0,1,1.26-.53,6.9,6.9,0,0,1,1.5-.16Zm13.12,1.92H269.44a4.63,4.63,0,0,0-1.07.11,2,2,0,0,0-.64.25h0a1.29,1.29,0,0,0-.36.49,5.57,5.57,0,0,0-.43,1.31v0l-16,66.75a1.42,1.42,0,0,1-.11.4l-.08.19v.41a.9.9,0,0,0,1,1h10.09a1.83,1.83,0,0,0,1.41-.44,2.94,2.94,0,0,0,.42-.64,3,3,0,0,0,.25-.75v0l2-8.19h0a2.72,2.72,0,0,1,3-2.33h14.26a3.12,3.12,0,0,1,1.93.58,3,3,0,0,1,1.08,1.69l2.08,7.91v0a4.91,4.91,0,0,0,.34,1,3.5,3.5,0,0,0,.46.75,1.89,1.89,0,0,0,1.49.47h10.21a2,2,0,0,0,1.13-.24.69.69,0,0,0,.2-.57,5.09,5.09,0,0,0,0-.56,2.93,2.93,0,0,0-.12-.49l0-.07-16.87-66.83h0a7,7,0,0,0-.5-1.31,1.61,1.61,0,0,0-.4-.52h0a2,2,0,0,0-.62-.26,4.55,4.55,0,0,0-1-.1Zm-10.71,44.62h8.41c0-.09,0-.21-.08-.36v0l-4.36-17.56L271.94,369v0a2.74,2.74,0,0,0-.08.36Zm8.52,1.91a1.64,1.64,0,0,0,1.63-.94h0a2.68,2.68,0,0,0,0-1.81l-4.58-18.42h0a2.33,2.33,0,0,0-.62-1.12h0l-.36-.36-.68-.68-.68.68a3.52,3.52,0,0,0-1,1.49v0l-4.06,18.43h0a2.65,2.65,0,0,0,0,1.78,1.63,1.63,0,0,0,1.62.94ZM282,368.5h0Zm43.63-45.69h8.12a7.83,7.83,0,0,1,2.22.27,2.84,2.84,0,0,1,1.58,1,4.13,4.13,0,0,1,.62,1.47,8.5,8.5,0,0,1,.18,1.84v20.09a3.33,3.33,0,0,0,.05.67.35.35,0,0,0,.55.35h11.35l.31,0h0a.88.88,0,0,0,.25-.31,2.44,2.44,0,0,0,.14-.91V327.42a10.52,10.52,0,0,1,.12-1.72,3.5,3.5,0,0,1,.46-1.31l0,0a3.38,3.38,0,0,1,1.68-1.2,7,7,0,0,1,2.33-.35h8.12a7.83,7.83,0,0,1,2.22.27,2.84,2.84,0,0,1,1.58,1,4.13,4.13,0,0,1,.62,1.47,8.5,8.5,0,0,1,.18,1.84V393a10.6,10.6,0,0,1-.12,1.72,3.4,3.4,0,0,1-.46,1.31l0,0a3.51,3.51,0,0,1-1.68,1.2,7,7,0,0,1-2.32.34h-8.12q-2.89,0-3.81-1.29a4.28,4.28,0,0,1-.61-1.47A7.88,7.88,0,0,1,351,393V365.73a.62.62,0,0,0-.7-.71H339a.74.74,0,0,0-.49.11.76.76,0,0,0-.11.49V393c0,1.93-.43,3.19-1.3,3.8a4,4,0,0,1-1.47.62,8.47,8.47,0,0,1-1.83.18h-8.12a10.52,10.52,0,0,1-1.72-.12,3.24,3.24,0,0,1-1.31-.46l0,0a3.29,3.29,0,0,1-1.2-1.68,6.91,6.91,0,0,1-.35-2.32V327.42a10.52,10.52,0,0,1,.12-1.72,3.34,3.34,0,0,1,.46-1.31l0,0a3.38,3.38,0,0,1,1.68-1.2,7,7,0,0,1,2.33-.35Zm8.12,1.92h-8.12A5.21,5.21,0,0,0,324,325a1.75,1.75,0,0,0-.75.49,1.93,1.93,0,0,0-.16.56,8.9,8.9,0,0,0-.09,1.41V393a5.19,5.19,0,0,0,.23,1.68,1.61,1.61,0,0,0,.52.77,1.81,1.81,0,0,0,.53.14,8.9,8.9,0,0,0,1.41.09h8.12a6.26,6.26,0,0,0,1.41-.13,2.17,2.17,0,0,0,.79-.31c.32-.23.48-1,.48-2.24V365.62A2.32,2.32,0,0,1,339,363.1h11.35a2.32,2.32,0,0,1,2.62,2.63V393a7.09,7.09,0,0,0,.13,1.42,2.32,2.32,0,0,0,.32.79c.22.31,1,.47,2.24.47h8.12a4.93,4.93,0,0,0,1.68-.23,1.56,1.56,0,0,0,.75-.49,1.52,1.52,0,0,0,.16-.56,8.68,8.68,0,0,0,.09-1.4V327.42a6.3,6.3,0,0,0-.13-1.42,2.07,2.07,0,0,0-.32-.79,1.08,1.08,0,0,0-.55-.3,6.22,6.22,0,0,0-1.68-.18h-8.12A5.21,5.21,0,0,0,354,325a1.65,1.65,0,0,0-.74.49,1.61,1.61,0,0,0-.17.56,8.9,8.9,0,0,0-.09,1.41V347.3a4,4,0,0,1-.32,1.69,2.56,2.56,0,0,1-1.11,1.23l0,0a1.88,1.88,0,0,1-.58.17,4.91,4.91,0,0,1-.57,0H339a3.08,3.08,0,0,1-1.2-.2,1.75,1.75,0,0,1-1-.85h0a3.36,3.36,0,0,1-.28-.88,6.14,6.14,0,0,1-.08-1V327.42a6.3,6.3,0,0,0-.13-1.42,2.24,2.24,0,0,0-.32-.79,1.08,1.08,0,0,0-.55-.3,6.22,6.22,0,0,0-1.68-.18Zm67.56,72.87h-7.92a10.38,10.38,0,0,1-1.71-.12,3.35,3.35,0,0,1-1.32-.46l0,0a3.41,3.41,0,0,1-1.2-1.68,7.19,7.19,0,0,1-.34-2.32V327.42a10.52,10.52,0,0,1,.12-1.72,3.34,3.34,0,0,1,.46-1.31l0,0a3.38,3.38,0,0,1,1.68-1.2,7,7,0,0,1,2.32-.35h8.12a7.85,7.85,0,0,1,2.23.27,2.84,2.84,0,0,1,1.58,1,4,4,0,0,1,.61,1.47,7.88,7.88,0,0,1,.19,1.84v29.17l12.1-29.54h0a18.2,18.2,0,0,1,1-2,5,5,0,0,1,1-1.32,3.39,3.39,0,0,1,1.33-.7h0a5.93,5.93,0,0,1,1.64-.21h8.43a7.83,7.83,0,0,1,2.22.27,2.8,2.8,0,0,1,1.58,1,4,4,0,0,1,.62,1.47,8.5,8.5,0,0,1,.18,1.84V393a10.38,10.38,0,0,1-.12,1.71h0a3.24,3.24,0,0,1-.46,1.31l0,0a3.41,3.41,0,0,1-1.68,1.2,6.92,6.92,0,0,1-2.32.34h-8.12a8.19,8.19,0,0,1-2.22-.26,2.77,2.77,0,0,1-1.58-1,4.1,4.1,0,0,1-.62-1.47,8.5,8.5,0,0,1-.18-1.84V362.44L407,393.32h0a10.37,10.37,0,0,1-1,2.08,4.37,4.37,0,0,1-1.33,1.37,6.29,6.29,0,0,1-3.36.82Zm-7.92-1.92h7.92a4.41,4.41,0,0,0,2.36-.53,2.65,2.65,0,0,0,.73-.78,9.09,9.09,0,0,0,.8-1.7h0L419,357l1.85-4.81V393a7.09,7.09,0,0,0,.13,1.42,2.54,2.54,0,0,0,.32.79,1.06,1.06,0,0,0,.56.29,6.22,6.22,0,0,0,1.68.18h8.12a4.93,4.93,0,0,0,1.68-.23,1.54,1.54,0,0,0,.77-.51,2,2,0,0,0,.14-.54h0a8.68,8.68,0,0,0,.09-1.4V327.42a6.3,6.3,0,0,0-.13-1.42,2.07,2.07,0,0,0-.32-.79,1,1,0,0,0-.55-.3,6.22,6.22,0,0,0-1.68-.18H423.2a4.19,4.19,0,0,0-1.1.13h0a1.67,1.67,0,0,0-.61.31,3.77,3.77,0,0,0-.62.84,15,15,0,0,0-.84,1.77h0l-13.95,34-1.84,4.5v-38.9a6.3,6.3,0,0,0-.13-1.42,2.24,2.24,0,0,0-.32-.79,1.08,1.08,0,0,0-.55-.3,6.25,6.25,0,0,0-1.69-.18h-8.12a5.19,5.19,0,0,0-1.68.23,1.69,1.69,0,0,0-.75.49,1.93,1.93,0,0,0-.16.56,8.9,8.9,0,0,0-.09,1.41V393a5.19,5.19,0,0,0,.23,1.68,1.6,1.6,0,0,0,.51.77,2,2,0,0,0,.54.14A8.85,8.85,0,0,0,393.42,395.68Z"/><path class="cls-2" d="M483.48,321.8h19.26a7.69,7.69,0,0,1,2.15.25,2.57,2.57,0,0,1,1.45.94,3.6,3.6,0,0,1,.58,1.39,7.87,7.87,0,0,1,.18,1.78v65.58c0,1.85-.4,3.05-1.19,3.61a3.76,3.76,0,0,1-1.39.58,7.93,7.93,0,0,1-1.78.18h-8.12a7.78,7.78,0,0,1-2.16-.26,2.59,2.59,0,0,1-1.45-.93,4.1,4.1,0,0,1-.58-1.39,8,8,0,0,1-.18-1.79V365.93a.75.75,0,0,0-.09-.45c-.05-.06-.16-.08-.33-.08h-2a1.53,1.53,0,0,0-.87.24,2,2,0,0,0-.66.8l-12.38,27h0a6.91,6.91,0,0,1-.63,1.19,3.46,3.46,0,0,1-.82.84,3.33,3.33,0,0,1-1.32.47,11.87,11.87,0,0,1-1.85.13H458.5a3.32,3.32,0,0,1-2.38-.8,3.1,3.1,0,0,1-.84-2.32,3.24,3.24,0,0,1,.1-.76,5.23,5.23,0,0,1,.26-.84l0-.06,13.43-28.11h0a4.86,4.86,0,0,0,.34-.83,1.62,1.62,0,0,0,.1-.51.43.43,0,0,0-.1-.12,3.13,3.13,0,0,0-.74-.49h0c-.71-.34-1.33-.65-1.85-.93a10.78,10.78,0,0,1-1.17-.7h0a22,22,0,0,1-3.9-3.8,19.61,19.61,0,0,1-2.68-4.51h0a20.78,20.78,0,0,1-1.21-4.05,22.92,22.92,0,0,1-.41-4.35,19.27,19.27,0,0,1,5.62-14,22,22,0,0,1,8.64-5.33,36,36,0,0,1,11.76-1.76Zm19.26,1.44H483.48a34.83,34.83,0,0,0-11.3,1.67,20.63,20.63,0,0,0-8.07,5,17.9,17.9,0,0,0-5.21,13,21.56,21.56,0,0,0,.38,4.08,19.3,19.3,0,0,0,1.13,3.77h0a17.92,17.92,0,0,0,2.47,4.17,20.53,20.53,0,0,0,3.65,3.55,10.18,10.18,0,0,0,1,.58q.68.36,1.8.9h0a4.25,4.25,0,0,1,1.12.75,1.6,1.6,0,0,1,.53,1.14,3.18,3.18,0,0,1-.17.94,6.73,6.73,0,0,1-.43,1L457,391.92a5.58,5.58,0,0,0-.2.63,2.69,2.69,0,0,0,0,.44,1.71,1.71,0,0,0,.4,1.28,1.91,1.91,0,0,0,1.38.4h10.82a9.88,9.88,0,0,0,1.61-.11,1.42,1.42,0,0,0,1.2-.72,4.78,4.78,0,0,0,.48-.91l0,0L485,365.84v0a3.52,3.52,0,0,1,1.16-1.37,3,3,0,0,1,1.67-.48h2a1.82,1.82,0,0,1,1.39.54,2.09,2.09,0,0,1,.47,1.43v25.81a6.78,6.78,0,0,0,.14,1.47,2.31,2.31,0,0,0,.36.88,1.23,1.23,0,0,0,.68.39,6.68,6.68,0,0,0,1.75.19h8.12a6.78,6.78,0,0,0,1.47-.14,2.51,2.51,0,0,0,.87-.35c.39-.28.58-1.09.58-2.44V326.16a6.85,6.85,0,0,0-.13-1.47,2.62,2.62,0,0,0-.36-.87,1.23,1.23,0,0,0-.68-.39,6.38,6.38,0,0,0-1.75-.19ZM490.25,349.9V337.61a.93.93,0,0,0-1.05-1.05h-4.58a12.44,12.44,0,0,0-4.13.61,6.94,6.94,0,0,0-2.84,1.77,6.84,6.84,0,0,0-1.88,4.92,7.24,7.24,0,0,0,.58,3,6.47,6.47,0,0,0,1.76,2.3,8,8,0,0,0,2.8,1.5,12.46,12.46,0,0,0,3.71.51h4.69c.63,0,.94-.42.94-1.25Zm1.44-12.29a2.2,2.2,0,0,0-2.49-2.49h-4.58a13.77,13.77,0,0,0-4.6.7,8.46,8.46,0,0,0-3.41,2.13h0a8.25,8.25,0,0,0-2.28,5.91,8.78,8.78,0,0,0,.71,3.57,7.86,7.86,0,0,0,2.15,2.81,9.41,9.41,0,0,0,3.29,1.77,13.76,13.76,0,0,0,4.14.58h4.69c1.59,0,2.38-.9,2.38-2.69Z"/><path class="cls-3" d="M401.62,325.29c0-.66-7.46-1.33-9.18-.61-3,1.26-2.32,3.74-2.32,12,0,.86-.52,8.72,1,9.16,1.79.51-.62-16.11,1.53-18.23S401.69,326.83,401.62,325.29Z"/><path class="cls-3" d="M434.73,368.41c.06,9.81,0,26.51-1.07,26.74-2,.43-10.55.85-12.2.42-.84-.22-1-1.82-.1-2.27.46-.23,9.76.68,10.61-1.44,1.3-3.22.47-10.39.47-19.29,0-6-.3-14.34-.1-20.92,0-.69.63-5.44,1.11-5.9C435,344.28,434.73,367.27,434.73,368.41Z"/><path class="cls-2" d="M186,43.2c5.4-.41,8.83-9.74,18.5-10.73,6.38-.66,9.87,6,18.87,5.77,4.14-.09,7.85-1.35,12.88-1.47a48.15,48.15,0,0,1,10.12.83C248.08,14.79,228.36-1,206.45.05,172.25,1.63,177.58,42,179,42.19S182.56,43.46,186,43.2Z"/><path class="cls-2" d="M196.32,35.53c6.94,4.07,11.93,13.39,13.07,14.58C211.62,48,215,43.25,220,37.66c0,0,.71.1,1.2.14a17.43,17.43,0,0,0,2.08,0c0,.11-3.34,4-6.15,7.37-3,3.63-6.24,7.07-6,7.23.16.39.59.64,2.5,3.74,2.27,3.68,5,6.75,4.73,6.88-.07,0-1.3-.39-1.48-.46-4.33-1.47-13.58-20.72-22.64-25.21l1-.89C195.5,36.15,196,35.84,196.32,35.53Z"/></g></g></svg>